<svg version="1.2" baseProfile="tiny" viewBox="0 0 161.467 340.993" xmlns:xlink="http://www.w3.org/1999/xlink" xmlns="http://www.w3.org/2000/svg">
<path style="fill:#ffffff;" d="M71.9642,332.0215L71.9642,334.4119L2.4656,334.4119L7.4646,324.7481L71.9642,324.7481L71.9642,327.309L74.3652,327.309L74.3652,325.3619L78.9396,325.3619L78.9396,1.5004L82.4386,1.5004L82.4386,325.3585L87.0129,325.3585L87.0129,327.309L89.5012,327.309L89.5012,324.7447L154.0008,324.7447L159.0014,334.4119L89.5012,334.4119L89.5012,332.0215L87.0129,332.0215L87.0129,333.9651L82.4386,333.9651L82.4386,339.6461L78.9396,339.6461L78.9396,333.9651L74.3652,333.9651L74.3652,332.0215L71.9642,332.0215L71.9642,332.0215Z"/>
</svg>