<svg version="1.2" baseProfile="tiny" viewBox="0 0 161.467 340.993" xmlns:xlink="http://www.w3.org/1999/xlink" xmlns="http://www.w3.org/2000/svg">
<path style="fill:#ffffff;" d="M89.5028,324.7481L89.5028,327.309L87.0146,327.309L87.0146,325.3619L82.4402,325.3619L82.4402,206.6077L87.0146,206.6077L87.0146,204.664L89.5028,204.664L89.5028,207.0544L159.0014,207.0544L154.0024,197.3872L89.5028,197.3872L89.5028,199.9515L87.0146,199.9515L87.0146,198.001L82.4402,198.001L82.4402,1.5004L78.9396,1.5004L78.9396,198.001L74.3652,198.001L74.3652,199.9515L71.9658,199.9515L71.9658,197.3872L7.4662,197.3872L2.4656,207.051L71.9658,207.051L71.9658,204.6606L74.3652,204.6606L74.3652,206.6077L78.9396,206.6077L78.9396,325.3585L74.3652,325.3585L74.3652,327.309L71.9658,327.309L71.9658,324.7447L7.4662,324.7447L2.4656,334.4119L71.9658,334.4119L71.9658,332.0215L74.3652,332.0215L74.3652,333.9651L78.9396,333.9651L78.9396,339.554L82.4402,339.554L82.4402,333.9651L87.0146,333.9651L87.0146,332.0215L89.5028,332.0215L89.5028,334.4119L159.0014,334.4119L154.0024,324.7447L89.5028,324.7447L89.5028,324.7447Z"/>
</svg>