<svg version="1.2" baseProfile="tiny" id="EdgeSVG_KsqnC" x="0px" y="0px" width="161.467px" height="340.993px" viewBox="0 0 161.467 340.993" xmlns:xlink="http://www.w3.org/1999/xlink" xmlns="http://www.w3.org/2000/svg">
  <linearGradient id="SVGID_1_" gradientUnits="userSpaceOnUse" x1="0" y1="170.4966" x2="161.4668" y2="170.4966">
    <stop offset="0" style="stop-color:#000000;stop-opacity:0.5"/>
    <stop offset="1" style="stop-color:#000000;stop-opacity:0.5"/>
  </linearGradient>
  <polygon fill="url(#SVGID_1_)" points="77.439,340.993 77.439,335.468 73.465,335.468 73.465,335.913 0,335.913 6.552,323.247 &#xD;&#xA;&#x9;&#x9;73.465,323.247 73.465,323.86 77.439,323.86 77.439,208.107 73.465,208.107 73.465,208.552 0,208.552 6.552,195.887 &#xD;&#xA;&#x9;&#x9;73.465,195.887 73.465,196.5 77.439,196.5 77.439,0 83.939,0 83.939,196.5 88.002,196.5 88.002,195.887 154.915,195.887 &#xD;&#xA;&#x9;&#x9;161.467,208.552 88.002,208.552 88.002,208.107 83.939,208.107 83.939,323.86 88.002,323.86 88.002,323.247 154.915,323.247 &#xD;&#xA;&#x9;&#x9;161.467,335.913 88.002,335.913 88.002,335.468 83.939,335.468 83.939,340.993 &#x9;"/>
</svg>