<svg version="1.2" baseProfile="tiny" id="EdgeSVG_GYxxj" x="0px" y="0px" width="33.014px" height="48.228px" viewBox="0 0 33.014 48.228" xmlns:xlink="http://www.w3.org/1999/xlink" xmlns="http://www.w3.org/2000/svg">
  <linearGradient id="SVGID_1_" gradientUnits="userSpaceOnUse" x1="0" y1="24.1138" x2="33.0137" y2="24.1138">
    <stop offset="0" style="stop-color:#000000;stop-opacity:0.5"/>
    <stop offset="1" style="stop-color:#000000;stop-opacity:0.5"/>
  </linearGradient>
  <path fill="url(#SVGID_1_)" d="M0.056,48.228V46.23c-0.055-0.25-0.102-0.679,0.03-1.203c0.025-0.101,0.085-0.358,0.168-0.71&#xD;&#xA;&#x9;&#x9;C1,41.142,1.341,39.815,1.512,39.417c0.202-0.471,0.545-0.949,0.774-1.24c0.05-0.886,0.178-3.734,0.145-9.277&#xD;&#xA;&#x9;&#x9;c-0.027-4.433-0.123-7.501-0.186-9.532c-0.037-1.188-0.064-2.068-0.064-2.723c0-1.326,0.045-2.007,0.073-2.303&#xD;&#xA;&#x9;&#x9;c-0.082-0.496-0.145-1.116-0.043-1.522c-0.005-0.01-0.015-0.054-0.021-0.096c-0.028-0.202-0.072-0.507,0.042-0.852&#xD;&#xA;&#x9;&#x9;c0.008-0.096-0.033-0.625-0.141-0.884c-0.19-0.457-0.162-0.883-0.144-1.166C1.952,9.736,1.96,9.619,1.953,9.581&#xD;&#xA;&#x9;&#x9;C1.656,9.047,0.842,6.578,0.747,6.155C0.723,6.049,0.653,5.796,0.568,5.483C0.201,4.142,0.023,3.439,0.002,3.08L0,0h33.014v2.97&#xD;&#xA;&#x9;&#x9;l-0.027,0.114c0,0.001-0.747,3.158-1.079,4.653c-0.268,1.203-0.922,3.086-1.221,3.92c0.238,0.569,0.508,1.604,0.536,3.389&#xD;&#xA;&#x9;&#x9;c0.021,1.406-0.015,3.178-0.054,5.054c-0.034,1.671-0.071,3.449-0.071,5.17c0,3.326-0.269,5.217-0.335,5.633&#xD;&#xA;&#x9;&#x9;c-0.008,0.432-0.045,2.633-0.083,3.614c-0.029,0.753-0.096,1.571-0.137,2.03c0.27,0.411,0.661,1.069,0.779,1.581&#xD;&#xA;&#x9;&#x9;c0.08,0.349,0.095,0.747,0.11,1.208c0.015,0.425,0.032,0.906,0.108,1.345c0.122,0.702,0.324,1.324,0.503,1.874l0.134,0.417&#xD;&#xA;&#x9;&#x9;c0.217,0.697,0.444,1.679,0.497,2.145c0.009,0.078,0.018,0.15,0.025,0.216l0.313,0.262v2.634H0.056z"/>
</svg>