<svg version="1.2" baseProfile="tiny" id="EdgeSVG_GYxxj" x="0px" y="0px" width="33.014px" height="48.228px" viewBox="0 0 33.014 48.228" xmlns:xlink="http://www.w3.org/1999/xlink" xmlns="http://www.w3.org/2000/svg">
  <linearGradient id="SVGID_2_" gradientUnits="userSpaceOnUse" x1="16.5063" y1="1.0615" x2="16.5063" y2="46.7285">
    <stop offset="0" style="stop-color:#FFFFFF;stop-opacity:0.25"/>
    <stop offset="0.009" style="stop-color:#FFFFFF;stop-opacity:0"/>
    <stop offset="0.0287" style="stop-color:#FFFFFF;stop-opacity:0"/>
    <stop offset="0.0362" style="stop-color:#FFFFFF;stop-opacity:0.25"/>
    <stop offset="0.2926" style="stop-color:#FFFFFF;stop-opacity:0"/>
    <stop offset="0.7406" style="stop-color:#000000;stop-opacity:0"/>
    <stop offset="0.9698" style="stop-color:#000000;stop-opacity:0.25"/>
    <stop offset="0.9804" style="stop-color:#000000;stop-opacity:0.1"/>
    <stop offset="0.9909" style="stop-color:#000000;stop-opacity:0.1"/>
    <stop offset="1" style="stop-color:#000000;stop-opacity:0.35"/>
  </linearGradient>
  <path fill="url(#SVGID_2_)" d="M16.869,46.728H1.056v-1.125c0,0-0.125-0.334,0-0.834s1.125-4.874,1.375-5.457&#xD;&#xA;&#x9;&#x9;c0.25-0.584,0.833-1.25,0.833-1.25s0.209-2.709,0.167-9.668c-0.042-6.958-0.25-10.457-0.25-12.249s0.083-2.333,0.083-2.333&#xD;&#xA;&#x9;&#x9;s-0.166-0.917-0.083-1.25s-0.083-0.625,0-0.875s0.041-1.083-0.167-1.583s0.084-1-0.166-1.458S1.807,5.812,1.723,5.437&#xD;&#xA;&#x9;&#x9;S1.027,2.979,1,2.52V1.062h15.869h15.145v1.292c0,0-0.75,3.167-1.083,4.667s-1.333,4.208-1.333,4.208s0.584,0.708,0.625,3.333&#xD;&#xA;&#x9;&#x9;s-0.125,6.542-0.125,10.208c0,3.667-0.334,5.542-0.334,5.542s-0.041,2.582-0.083,3.666s-0.167,2.334-0.167,2.334&#xD;&#xA;&#x9;&#x9;s0.709,0.999,0.834,1.541s0.041,1.541,0.208,2.5s0.459,1.75,0.667,2.417s0.416,1.583,0.458,1.958s0.083,0.625,0.083,0.625&#xD;&#xA;&#x9;&#x9;l0.25,0.209v1.166H16.869z"/>
  <linearGradient id="SVGID_3_" gradientUnits="userSpaceOnUse" x1="16.3823" y1="2.7451" x2="16.3823" y2="45.6055">
    <stop offset="0" style="stop-color:#000000;stop-opacity:0.1"/>
    <stop offset="0.1584" style="stop-color:#000000;stop-opacity:0"/>
    <stop offset="0.8431" style="stop-color:#FFFFFF;stop-opacity:0"/>
    <stop offset="1" style="stop-color:#FFFFFF;stop-opacity:0.1"/>
  </linearGradient>
  <path fill="url(#SVGID_3_)" d="M31.767,45.335c-0.55-0.5-1.859-1.67-2.13-1.761c-0.33-0.109-0.91-0.31-0.75-0.72&#xD;&#xA;&#x9;&#x9;c0.17-0.42-0.71-1.25-1.16-0.79c-0.46,0.45-1.09,0.62-2.63,0.16s-2.37,0.21-3.33,0.25s-2.96-0.87-3.17-0.92s-1.54,0.38-2.06,0.51&#xD;&#xA;&#x9;&#x9;c-0.52,0.12-3.27,0.04-4.73,0.41c-1.46,0.38-3.79-0.16-4.96-0.79c-1.17-0.62-1.5,1.13-3.21,2.08c-1.71,0.96-2.58,1.84-2.58,1.84&#xD;&#xA;&#x9;&#x9;s-0.13-0.34,0-0.84l0.58-0.41c0,0,0.54-1.5,0.84-2.42c0.29-0.92,0.79-1.29,0.5-1.42c-0.3-0.12-0.25-0.91-0.25-0.91&#xD;&#xA;&#x9;&#x9;c0.29,0.29,0.87,0.12,1.54,0.37c0.66,0.25,1.83-0.46,1.83-0.46s-1.04-0.95-1.33-1.08c-0.3-0.12-1.17,0.38-1.75,0.63&#xD;&#xA;&#x9;&#x9;c-0.59,0.25,0.54-0.96,0.66-1.21c0.13-0.25,0.25-0.67,0.34-1c0.08-0.34,0.66-0.38,1.16-0.38s0.34,0.04,0.59,0.5&#xD;&#xA;&#x9;&#x9;c0.23,0.43,1.09,1.71,1.2,1.86c-0.25-1.591-1.45-3.9-1.7-4.57c-0.25-0.66-0.79-2.37-0.96-3.37s0.42-1.83,0.42-1.83&#xD;&#xA;&#x9;&#x9;c-0.13-0.3-0.63-4.55-0.63-5.5c0-0.96-0.17-3.34,0.21-4.21c0.37-0.88,0-3.71-0.21-4.25s-0.21-1.38-0.21-1.38s0.38-0.5,0.65-0.66&#xD;&#xA;&#x9;&#x9;c0.27-0.17,3.14-1.63,3.14-1.84s-1.83-0.16-2.12-0.04c-0.29,0.13-1.75,1.5-1.79,1.08c-0.05-0.41,1.62-1.66,1.62-1.66&#xD;&#xA;&#x9;&#x9;s-0.33-0.54-0.62-0.88c-0.3-0.33-1.09-1.33-1.29-1.5c-0.21-0.16-0.3-1.29-0.34-2.66c-0.04-1.38-0.25-1.05-0.66-1.21&#xD;&#xA;&#x9;&#x9;c-0.42-0.17-1.09-1.61-1.09-1.61c0.42,0.25,1.06,0.65,1.46,0.96c0.63,0.48,7.13,3.02,9.63,3.48s5.54,1.5,10.25-0.25&#xD;&#xA;&#x9;&#x9;c4.7-1.75,6.62-2.54,6.7-2.96c0.08-0.37,1.34-0.9,1.94-1.22c-0.07,0.26-1.04,3.96-1.48,4.68c-0.46,0.75-0.87,2.13-0.87,2.42&#xD;&#xA;&#x9;&#x9;s0.41,0.91,0,1.04c-0.42,0.12-0.13,1.46-0.92,1.25s-1.29-0.5-1.29-0.5s-0.17,1.46,0.92,2.75c1.08,1.29,0.79,2.75,0.79,3.54&#xD;&#xA;&#x9;&#x9;s0.55,1.79,0.57,4.08c0.01,2.3,0.149,8.09,0,9.59c-0.16,1.5-0.49,2.66-0.86,3.16c-0.38,0.5-2.5,0.75-2.5,1.13&#xD;&#xA;&#x9;&#x9;c0,0.37,1.24,1.87,1.79,2.96c0.54,1.08,1.16,1.79,1.5,1.79c0.33,0,0.04-1.33-0.13-1.88c-0.16-0.54-0.58-1.25,0.09-1.5&#xD;&#xA;&#x9;&#x9;c0.66-0.25,0.62-0.2,0.79,0.5c0.16,0.71-0.21,0.8-0.17,1.38s0.29,1.62,0.21,1.87s-0.88,1.3-0.67,1.3s0.67-0.25,0.71-0.46&#xD;&#xA;&#x9;&#x9;s0.38-1.67,0.38-1.67s0.24,1,0.16,1.42c-0.08,0.41-0.5,1.5-0.21,1.83c0.3,0.33,1.53,1.49,1.53,1.49&#xD;&#xA;&#x9;&#x9;C31.736,45.135,31.757,45.285,31.767,45.335z"/>
  <linearGradient id="SVGID_4_" gradientUnits="userSpaceOnUse" x1="1" y1="23.895" x2="32.0137" y2="23.895">
    <stop offset="0.0256" style="stop-color:#000000;stop-opacity:0.15"/>
    <stop offset="0.0789" style="stop-color:#323232;stop-opacity:0.1392"/>
    <stop offset="0.1432" style="stop-color:#686868;stop-opacity:0.1262"/>
    <stop offset="0.2082" style="stop-color:#969696;stop-opacity:0.1131"/>
    <stop offset="0.2727" style="stop-color:#BCBCBC;stop-opacity:0.1001"/>
    <stop offset="0.3365" style="stop-color:#D9D9D9;stop-opacity:0.0872"/>
    <stop offset="0.3995" style="stop-color:#EEEEEE;stop-opacity:0.0744"/>
    <stop offset="0.4612" style="stop-color:#FBFBFB;stop-opacity:0.062"/>
    <stop offset="0.5204" style="stop-color:#FFFFFF;stop-opacity:0.05"/>
    <stop offset="0.5717" style="stop-color:#FBFBFB;stop-opacity:0.0614"/>
    <stop offset="0.6279" style="stop-color:#EDEDED;stop-opacity:0.0738"/>
    <stop offset="0.6864" style="stop-color:#D7D7D7;stop-opacity:0.0867"/>
    <stop offset="0.7465" style="stop-color:#B9B9B9;stop-opacity:0.1"/>
    <stop offset="0.8078" style="stop-color:#919191;stop-opacity:0.1135"/>
    <stop offset="0.8701" style="stop-color:#616161;stop-opacity:0.1273"/>
    <stop offset="0.9321" style="stop-color:#292929;stop-opacity:0.141"/>
    <stop offset="0.9729" style="stop-color:#000000;stop-opacity:0.15"/>
  </linearGradient>
  <path fill="url(#SVGID_4_)" d="M16.869,46.728H1.056v-1.125c0,0-0.125-0.334,0-0.834s1.125-4.874,1.375-5.457&#xD;&#xA;&#x9;&#x9;c0.25-0.584,0.833-1.25,0.833-1.25s0.209-2.709,0.167-9.668c-0.042-6.958-0.25-10.457-0.25-12.249s0.083-2.333,0.083-2.333&#xD;&#xA;&#x9;&#x9;s-0.166-0.917-0.083-1.25s-0.083-0.625,0-0.875s0.041-1.083-0.167-1.583s0.084-1-0.166-1.458S1.807,5.812,1.723,5.437&#xD;&#xA;&#x9;&#x9;S1.027,2.979,1,2.52V1.062h15.869h15.145v1.292c0,0-0.75,3.167-1.083,4.667s-1.333,4.208-1.333,4.208s0.584,0.708,0.625,3.333&#xD;&#xA;&#x9;&#x9;s-0.125,6.542-0.125,10.208c0,3.667-0.334,5.542-0.334,5.542s-0.041,2.582-0.083,3.666s-0.167,2.334-0.167,2.334&#xD;&#xA;&#x9;&#x9;s0.709,0.999,0.834,1.541s0.041,1.541,0.208,2.5s0.459,1.75,0.667,2.417s0.416,1.583,0.458,1.958s0.083,0.625,0.083,0.625&#xD;&#xA;&#x9;&#x9;l0.25,0.209v1.166H16.869z"/>
  <linearGradient id="SVGID_5_" gradientUnits="userSpaceOnUse" x1="0.9966" y1="23.6401" x2="32.0166" y2="23.6401">
    <stop offset="0" style="stop-color:#000000;stop-opacity:0.05"/>
    <stop offset="0.0751" style="stop-color:#000000;stop-opacity:0.057"/>
    <stop offset="0.5385" style="stop-color:#000000;stop-opacity:0.1"/>
    <stop offset="1" style="stop-color:#000000;stop-opacity:0.05"/>
  </linearGradient>
  <path fill="url(#SVGID_5_)" d="M3.887,13.725c0,0,0,0.84,0.21,1.38s0.58,3.37,0.21,4.25c-0.38,0.87-0.21,3.25-0.21,4.21&#xD;&#xA;&#x9;&#x9;c0,0.95,0.5,5.2,0.63,5.5c0,0-0.59,0.83-0.42,1.83s0.71,2.71,0.96,3.37c0.25,0.67,1.45,2.979,1.7,4.57&#xD;&#xA;&#x9;&#x9;c-0.11-0.15-0.97-1.431-1.2-1.86c-0.25-0.46-0.09-0.5-0.59-0.5s-1.08,0.04-1.16,0.38c-0.09,0.33-0.21,0.75-0.34,1&#xD;&#xA;&#x9;&#x9;c-0.12,0.25-1.25,1.46-0.66,1.21c0.58-0.25,1.45-0.75,1.75-0.63c0.29,0.13,1.33,1.08,1.33,1.08s-1.17,0.71-1.83,0.46&#xD;&#xA;&#x9;&#x9;c-0.67-0.25-1.25-0.08-1.54-0.37c0,0-0.05,0.79,0.25,0.91c0.29,0.13-0.21,0.5-0.5,1.42c-0.3,0.92-0.84,2.42-0.84,2.42l-0.58,0.41&#xD;&#xA;&#x9;&#x9;c0.12-0.5,1.12-4.87,1.37-5.45c0.25-0.59,0.84-1.25,0.84-1.25s0.21-2.71,0.16-9.67c-0.04-6.96-0.25-10.46-0.25-12.25&#xD;&#xA;&#x9;&#x9;s0.09-2.33,0.09-2.33s-0.17-0.92-0.09-1.25c0.09-0.34-0.08-0.63,0-0.88c0.09-0.25,0.04-1.08-0.16-1.58c-0.21-0.5,0.08-1-0.17-1.46&#xD;&#xA;&#x9;&#x9;s-1.04-2.83-1.12-3.21c-0.09-0.37-0.7-2.46-0.73-2.92c0,0,0.16,0.09,0.39,0.23c0,0,0.67,1.44,1.09,1.61&#xD;&#xA;&#x9;&#x9;c0.41,0.16,0.62-0.17,0.66,1.21c0.04,1.37,0.13,2.5,0.34,2.66c0.2,0.17,0.99,1.17,1.29,1.5c0.29,0.34,0.62,0.88,0.62,0.88&#xD;&#xA;&#x9;&#x9;s-1.67,1.25-1.62,1.66c0.04,0.42,1.5-0.95,1.79-1.08c0.29-0.12,2.12-0.17,2.12,0.04s-2.87,1.67-3.14,1.84&#xD;&#xA;&#x9;&#x9;C4.267,13.225,3.887,13.725,3.887,13.725z M31.227,42.765c-0.21-0.66-0.5-1.45-0.67-2.41s-0.08-1.96-0.21-2.5&#xD;&#xA;&#x9;&#x9;c-0.12-0.54-0.83-1.54-0.83-1.54s0.12-1.25,0.16-2.34c0.05-1.08,0.09-3.66,0.09-3.66s0.33-1.88,0.33-5.55&#xD;&#xA;&#x9;&#x9;c0-3.66,0.17-7.58,0.13-10.2c-0.05-2.63-0.63-3.34-0.63-3.34s1-2.71,1.33-4.21c0.34-1.5,1.09-4.66,1.09-4.66s0,0-0.46,0.29&#xD;&#xA;&#x9;&#x9;c-0.05,0.03-0.11,0.07-0.189,0.1c0,0,0,0,0,0.01c-0.07,0.26-1.04,3.96-1.48,4.68c-0.46,0.75-0.87,2.13-0.87,2.42s0.41,0.91,0,1.04&#xD;&#xA;&#x9;&#x9;c-0.42,0.12-0.13,1.46-0.92,1.25s-1.29-0.5-1.29-0.5s-0.17,1.46,0.92,2.75c1.08,1.29,0.79,2.75,0.79,3.54s0.55,1.79,0.57,4.08&#xD;&#xA;&#x9;&#x9;c0.01,2.3,0.149,8.09,0,9.59c-0.16,1.5-0.49,2.66-0.86,3.16c-0.38,0.5-2.5,0.75-2.5,1.13c0,0.37,1.24,1.87,1.79,2.96&#xD;&#xA;&#x9;&#x9;c0.54,1.08,1.16,1.79,1.5,1.79c0.33,0,0.04-1.33-0.13-1.88c-0.16-0.54-0.58-1.25,0.09-1.5c0.66-0.25,0.62-0.2,0.79,0.5&#xD;&#xA;&#x9;&#x9;c0.16,0.71-0.21,0.8-0.17,1.38s0.29,1.62,0.21,1.87s-0.88,1.3-0.67,1.3s0.67-0.25,0.71-0.46s0.38-1.67,0.38-1.67s0.24,1,0.16,1.42&#xD;&#xA;&#x9;&#x9;c-0.08,0.41-0.5,1.5-0.21,1.83c0.3,0.33,1.53,1.49,1.53,1.49c-0.011-0.061-0.021-0.13-0.03-0.2&#xD;&#xA;&#x9;&#x9;C31.637,44.355,31.427,43.435,31.227,42.765z"/>
  <g>
    <linearGradient id="SVGID_6_" gradientUnits="userSpaceOnUse" x1="1.0566" y1="46.145" x2="32.0166" y2="46.145">
      <stop offset="0" style="stop-color:#000000;stop-opacity:0.2"/>
      <stop offset="0.0136" style="stop-color:#000000;stop-opacity:0"/>
      <stop offset="0.9894" style="stop-color:#000000;stop-opacity:0"/>
      <stop offset="1" style="stop-color:#000000;stop-opacity:0.2"/>
    </linearGradient>
    <polygon fill="url(#SVGID_6_)" points="32.017,45.565 32.017,46.725 1.057,46.725 1.057,45.605 &#x9;&#x9;"/>
    <linearGradient id="SVGID_7_" gradientUnits="userSpaceOnUse" x1="0.9966" y1="1.79" x2="32.0166" y2="1.79">
      <stop offset="0" style="stop-color:#000000;stop-opacity:0.2"/>
      <stop offset="0.0136" style="stop-color:#000000;stop-opacity:0"/>
      <stop offset="0.9894" style="stop-color:#000000;stop-opacity:0"/>
      <stop offset="1" style="stop-color:#000000;stop-opacity:0.2"/>
    </linearGradient>
    <polygon fill="url(#SVGID_7_)" points="32.017,1.065 32.017,2.355 31.547,2.355 1.387,2.515 0.997,2.515 0.997,1.065 &#x9;&#x9;"/>
  </g>
  <linearGradient id="SVGID_8_" gradientUnits="userSpaceOnUse" x1="16.5068" y1="7.9131" x2="16.5068" y2="2.355">
    <stop offset="0" style="stop-color:#FFFFFF;stop-opacity:0.1"/>
    <stop offset="1" style="stop-color:#FFFFFF;stop-opacity:0"/>
  </linearGradient>
  <path fill="url(#SVGID_8_)" d="M32.017,2.355c0,0,0,0-0.46,0.29c-0.05,0.03-0.11,0.07-0.189,0.1c0,0,0,0,0,0.01&#xD;&#xA;&#x9;&#x9;c-0.601,0.32-1.86,0.85-1.94,1.22c-0.08,0.42-2,1.21-6.7,2.96c-4.71,1.75-7.75,0.71-10.25,0.25s-9-3-9.63-3.48&#xD;&#xA;&#x9;&#x9;c-0.4-0.31-1.04-0.71-1.46-0.96c-0.23-0.14-0.39-0.23-0.39-0.23h0.39c0.84,0.25,2.58,0.3,2.88,0.42c0.29,0.13,1.16-0.33,1.71,0&#xD;&#xA;&#x9;&#x9;c0.54,0.33,2.08,0,2.75,0.58c0.66,0.59,1.04-0.41,1.91-0.2c0.88,0.2,1.88-0.65,2.42-0.2c0.54,0.45,0.96-0.35,2.71,0.28&#xD;&#xA;&#x9;&#x9;c1.75,0.62,1.58-0.86,2.87-0.28c1.29,0.57,2.38-0.14,3.25,0.32c0.88,0.46,2.46-0.48,2.96-0.32c0.5,0.15,2.63-0.16,3.25,0&#xD;&#xA;&#x9;&#x9;c0.63,0.15,2.57-0.62,3.45-0.76H32.017z"/>
  <linearGradient id="SVGID_9_" gradientUnits="userSpaceOnUse" x1="1.3867" y1="3.0298" x2="31.5469" y2="3.0298">
    <stop offset="0" style="stop-color:#000000;stop-opacity:0.1"/>
    <stop offset="0.457" style="stop-color:#000000;stop-opacity:0.05"/>
    <stop offset="1" style="stop-color:#000000;stop-opacity:0.1"/>
  </linearGradient>
  <path fill="url(#SVGID_9_)" d="M31.547,2.355c-0.88,0.14-2.82,0.91-3.45,0.76c-0.62-0.16-2.75,0.15-3.25,0&#xD;&#xA;&#x9;&#x9;c-0.5-0.16-2.08,0.78-2.96,0.32c-0.87-0.46-1.96,0.25-3.25-0.32c-1.29-0.58-1.12,0.9-2.87,0.28c-1.75-0.63-2.17,0.17-2.71-0.28&#xD;&#xA;&#x9;&#x9;c-0.54-0.45-1.54,0.4-2.42,0.2c-0.87-0.21-1.25,0.79-1.91,0.2c-0.67-0.58-2.21-0.25-2.75-0.58c-0.55-0.33-1.42,0.13-1.71,0&#xD;&#xA;&#x9;&#x9;c-0.3-0.12-2.04-0.17-2.88-0.42L31.547,2.355z"/>
  <path fill="#29ABE2" d="M6.977,38.855c0-0.01,0-0.01-0.01-0.02"/>
  <linearGradient id="SVGID_10_" gradientUnits="userSpaceOnUse" x1="1.0566" y1="44.9155" x2="32.0166" y2="44.9155">
    <stop offset="0" style="stop-color:#000000;stop-opacity:0.1"/>
    <stop offset="0.457" style="stop-color:#000000;stop-opacity:0.05"/>
    <stop offset="1" style="stop-color:#000000;stop-opacity:0.1"/>
  </linearGradient>
  <path fill="url(#SVGID_10_)" d="M32.017,45.565l-30.96,0.04c0,0,2.25-0.68,2.87-0.68c0.63,0.01,2.13-0.61,2.8-0.16&#xD;&#xA;&#x9;&#x9;c0.66,0.46,0.7-0.41,1.16-0.16s0.96-0.76,2.29-0.05c1.34,0.71,2.13-0.33,3.63,0.21c1.5,0.55,2.11-0.54,2.7,0&#xD;&#xA;&#x9;&#x9;c0.59,0.55,0.34-0.7,2.13-0.2s2.88-0.62,3.63-0.27c0.75,0.35,1.62-0.19,2.33,0.18c0.71,0.38,2.25-0.46,3.25-0.08&#xD;&#xA;&#x9;&#x9;c1,0.37,1.88-0.04,2.46,0.37c0.54,0.39,1.57,0.75,1.7,0.79C32.017,45.565,32.017,45.565,32.017,45.565z"/>
  <linearGradient id="SVGID_11_" gradientUnits="userSpaceOnUse" x1="16.5317" y1="41.5513" x2="16.5317" y2="45.605">
    <stop offset="0" style="stop-color:#FFFFFF;stop-opacity:0.1"/>
    <stop offset="1" style="stop-color:#FFFFFF;stop-opacity:0.05"/>
  </linearGradient>
  <path fill="url(#SVGID_11_)" d="M32.007,45.555c-0.13-0.04-1.16-0.4-1.7-0.79c-0.58-0.41-1.46,0-2.46-0.37&#xD;&#xA;&#x9;&#x9;c-1-0.38-2.54,0.46-3.25,0.08c-0.71-0.37-1.58,0.17-2.33-0.18c-0.75-0.351-1.84,0.77-3.63,0.27s-1.54,0.75-2.13,0.2&#xD;&#xA;&#x9;&#x9;c-0.59-0.54-1.2,0.55-2.7,0c-1.5-0.54-2.29,0.5-3.63-0.21c-1.33-0.71-1.83,0.3-2.29,0.05s-0.5,0.62-1.16,0.16&#xD;&#xA;&#x9;&#x9;c-0.67-0.45-2.17,0.17-2.8,0.16c-0.62,0-2.87,0.68-2.87,0.68s0.87-0.88,2.58-1.84c1.71-0.95,2.04-2.7,3.21-2.08&#xD;&#xA;&#x9;&#x9;c1.17,0.63,3.5,1.17,4.96,0.79c1.46-0.37,4.21-0.29,4.73-0.41c0.52-0.13,1.85-0.56,2.06-0.51s2.21,0.96,3.17,0.92&#xD;&#xA;&#x9;&#x9;s1.79-0.71,3.33-0.25s2.17,0.29,2.63-0.16c0.45-0.46,1.33,0.37,1.16,0.79c-0.16,0.41,0.42,0.61,0.75,0.72&#xD;&#xA;&#x9;&#x9;c0.271,0.091,1.58,1.261,2.13,1.761c0,0.01,0,0.02,0,0.02l0.061,0.04C31.927,45.485,31.986,45.545,32.007,45.555z"/>
  <path fill="#29ABE2" d="M31.827,45.395c-0.021-0.02-0.04-0.04-0.061-0.06"/>
</svg>