<svg version="1.2" baseProfile="tiny" viewBox="0 0 33.014 48.228" xmlns:xlink="http://www.w3.org/1999/xlink" xmlns="http://www.w3.org/2000/svg">
<path style="fill:#ffffff;" d="M16.8692,46.7281L1.0561,46.7281L1.0561,45.603L1.0561,45.603C1.0561,45.603,0.931,45.2692,1.0561,44.7691C1.1809,44.269,2.1809,39.8952,2.4312,39.3121C2.6811,38.7281,3.2641,38.062,3.2641,38.062C3.2641,38.062,3.4731,35.3531,3.4311,28.3942C3.3889,21.4359,3.1809,17.937,3.1809,16.1448C3.1809,14.3531,3.2641,13.812,3.2641,13.812C3.2641,13.812,3.098,12.8952,3.1809,12.5619C3.2641,12.2292,3.098,11.9369,3.1809,12.5619C3.2641,11.4368,3.2218,10.6039,3.0138,10.1038C2.8059,9.6041,3.098,9.104,2.8481,8.6458C2.5979,8.1882,1.8069,5.812,1.723,5.4372C1.6391,5.062,1.0271,2.979,1.0,2.5199L1.0,1.062L16.8692,1.062L32.014,1.062L32.014,2.354C32.014,2.354,31.2639,5.5211,30.9311,7.021C30.598,8.5209,29.598,11.2289,29.598,11.2289C29.598,11.2289,30.1821,11.9369,30.223,14.562C30.2639,17.187,30.0979,21.1041,30.0979,24.7699C30.0979,28.4372,29.7641,30.3118,29.7641,30.3118C29.7641,30.3118,29.7232,32.8939,29.6809,33.9781C29.639,35.0622,29.5139,36.3118,29.5139,36.3118C29.5139,36.3118,30.223,37.3111,30.3481,37.8532C30.4729,38.3948,30.3891,39.3941,30.5561,40.3528C30.7232,41.3121,31.015,42.103,31.223,42.77C31.431,43.437,31.639,44.3529,31.6809,44.7281C31.7232,45.1028,31.7641,45.3531,31.7641,45.3531L32.014,45.562L32.014,46.7281L16.8692,46.7281L16.8692,46.7281Z"/>
</svg>