<svg version="1.2" baseProfile="tiny" id="EdgeSVG_Gvt5p" x="0px" y="0px" width="30px" height="30px" viewBox="0 0 30 30" xmlns:xlink="http://www.w3.org/1999/xlink" xmlns="http://www.w3.org/2000/svg">
  <radialGradient id="SVGID_10_" cx="15.0918" cy="15" r="12.5852" gradientUnits="userSpaceOnUse">
    <stop offset="0" style="stop-color:#000000;stop-opacity:0"/>
    <stop offset="0.8607" style="stop-color:#000000;stop-opacity:0.0861"/>
    <stop offset="1" style="stop-color:#000000;stop-opacity:0.1"/>
  </radialGradient>
  <circle fill="url(#SVGID_10_)" cx="15.092" cy="15" r="12.585"/>
  <radialGradient id="SVGID_11_" cx="15.1499" cy="15.0005" r="11.7915" gradientUnits="userSpaceOnUse">
    <stop offset="0" style="stop-color:#000000;stop-opacity:0"/>
    <stop offset="0.8581" style="stop-color:#000000;stop-opacity:0.1287"/>
    <stop offset="1" style="stop-color:#000000;stop-opacity:0.15"/>
  </radialGradient>
  <circle fill="url(#SVGID_11_)" cx="15.15" cy="15" r="11.792"/>
  <linearGradient id="SVGID_12_" gradientUnits="userSpaceOnUse" x1="15.2759" y1="2.9004" x2="15.2759" y2="12.9814">
    <stop offset="0" style="stop-color:#FFFFFF;stop-opacity:0.15"/>
    <stop offset="0.8581" style="stop-color:#FFFFFF;stop-opacity:0.1929"/>
    <stop offset="1" style="stop-color:#FFFFFF;stop-opacity:0.2"/>
  </linearGradient>
  <path fill="url(#SVGID_12_)" d="M26.922,12.195c-3.717,0.874-8.44,1.268-11.292-0.157c-0.466-0.233-0.948-0.431-1.442-0.599&#xD;&#xA;&#x9;&#x9;c-3.124-1.057-6.779-0.866-10.558-0.147C5.195,6.423,9.761,2.9,15.15,2.9c5.246,0,9.713,3.338,11.39,8.007&#xD;&#xA;&#x9;&#x9;C26.691,11.326,26.819,11.756,26.922,12.195z"/>
  <linearGradient id="SVGID_13_" gradientUnits="userSpaceOnUse" x1="15.146" y1="2.415" x2="15.146" y2="11.2461">
    <stop offset="0" style="stop-color:#FFFFFF;stop-opacity:0.3"/>
    <stop offset="0.8607" style="stop-color:#FFFFFF;stop-opacity:0.1279"/>
    <stop offset="1" style="stop-color:#FFFFFF;stop-opacity:0.1"/>
  </linearGradient>
  <path fill="url(#SVGID_13_)" d="M27.097,11.215c-0.084,0.01-0.17,0.021-0.257,0.031C25.252,6.272,20.593,2.67,15.092,2.67&#xD;&#xA;&#x9;&#x9;c-5.34,0-9.887,3.394-11.601,8.142c-0.1,0.024-0.199,0.048-0.297,0.074c1.705-4.93,6.388-8.471,11.898-8.471&#xD;&#xA;&#x9;&#x9;C20.723,2.415,25.491,6.114,27.097,11.215z"/>
  <g>
    <linearGradient id="SVGID_14_" gradientUnits="userSpaceOnUse" x1="20.9585" y1="3.124" x2="20.9585" y2="26.877">
      <stop offset="0" style="stop-color:#FFFFFF;stop-opacity:0.15"/>
      <stop offset="0.3001" style="stop-color:#FFFFFF;stop-opacity:0.2787"/>
      <stop offset="0.3497" style="stop-color:#FFFFFF;stop-opacity:0.3"/>
      <stop offset="1" style="stop-color:#FFFFFF;stop-opacity:0.1"/>
    </linearGradient>
    <path fill="url(#SVGID_14_)" d="M25.115,15c0,5.971-3.596,10.927-8.313,11.877c2.202-1.599,3.797-6.312,3.797-11.877&#xD;&#xA;&#x9;&#x9;&#x9;c0-5.564-1.595-10.277-3.797-11.876C21.519,4.074,25.115,9.029,25.115,15z"/>
    <linearGradient id="SVGID_15_" gradientUnits="userSpaceOnUse" x1="9.3413" y1="3.124" x2="9.3413" y2="26.877">
      <stop offset="0" style="stop-color:#FFFFFF;stop-opacity:0.15"/>
      <stop offset="0.3001" style="stop-color:#FFFFFF;stop-opacity:0.2787"/>
      <stop offset="0.3497" style="stop-color:#FFFFFF;stop-opacity:0.3"/>
      <stop offset="1" style="stop-color:#FFFFFF;stop-opacity:0.1"/>
    </linearGradient>
    <path fill="url(#SVGID_15_)" d="M13.497,26.877C8.781,25.926,5.185,20.97,5.185,15c0-5.97,3.596-10.926,8.312-11.876&#xD;&#xA;&#x9;&#x9;&#x9;C11.295,4.724,9.701,9.436,9.701,15S11.295,25.277,13.497,26.877z"/>
  </g>
  <linearGradient id="SVGID_16_" gradientUnits="userSpaceOnUse" x1="15.0913" y1="2.415" x2="15.0913" y2="27.585">
    <stop offset="0" style="stop-color:#000000;stop-opacity:0.2"/>
    <stop offset="0.9875" style="stop-color:#000000;stop-opacity:0.2987"/>
    <stop offset="1" style="stop-color:#000000;stop-opacity:0.3"/>
  </linearGradient>
  <path fill="url(#SVGID_16_)" d="M15.092,2.415C8.141,2.415,2.506,8.05,2.506,15c0,6.951,5.635,12.585,12.586,12.585&#xD;&#xA;&#x9;&#x9;c6.95,0,12.585-5.634,12.585-12.585C27.677,8.05,22.042,2.415,15.092,2.415z M15.092,27.05c-6.655,0-12.05-5.395-12.05-12.05&#xD;&#xA;&#x9;&#x9;c0-6.654,5.395-12.049,12.05-12.049c6.654,0,12.049,5.395,12.049,12.049C27.141,21.655,21.746,27.05,15.092,27.05z"/>
  <linearGradient id="SVGID_17_" gradientUnits="userSpaceOnUse" x1="15.1499" y1="3.209" x2="15.1499" y2="26.792">
    <stop offset="0" style="stop-color:#FFFFFF;stop-opacity:0.05"/>
    <stop offset="0.8581" style="stop-color:#FFFFFF;stop-opacity:0.1358"/>
    <stop offset="1" style="stop-color:#FFFFFF;stop-opacity:0.15"/>
  </linearGradient>
  <path fill="url(#SVGID_17_)" d="M15.15,3.209C8.638,3.209,3.359,8.488,3.359,15c0,6.512,5.279,11.792,11.791,11.792&#xD;&#xA;&#x9;&#x9;c6.512,0,11.791-5.28,11.791-11.792C26.941,8.488,21.662,3.209,15.15,3.209z M15.15,24.432c-5.209,0-9.431-4.223-9.431-9.432&#xD;&#xA;&#x9;&#x9;s4.222-9.431,9.431-9.431S24.581,9.791,24.581,15S20.359,24.432,15.15,24.432z"/>
</svg>