<svg version="1.2" baseProfile="tiny" viewBox="0 0 332.729 139.896" xmlns:xlink="http://www.w3.org/1999/xlink" xmlns="http://www.w3.org/2000/svg">
<path style="fill:#ffffff;" d="M298.5977,37.8027L255.8154,37.8027L255.8154,39.1107L253.3598,39.1107L253.3598,37.8027L116.4818,37.8027L116.4818,35.9631L101.489,35.9631L101.489,32.9525L104.6033,32.9525C106.3568,32.9525,107.7909,31.5396,107.7909,29.8104L107.7909,29.332C109.1151,28.9669,110.0634,28.0394,110.0634,26.9538L110.0634,26.8684L110.0634,6.126L110.0634,6.0407C110.0634,4.9411,109.0885,4.0066,107.741,3.6527C107.4981,2.1558,106.1871,1.0003,104.6033,1.0003L65.5376,1.0003C63.9572,1.0003,62.6462,2.1558,62.4033,3.6527C61.0524,4.008,60.0775,4.9425,60.0775,6.0407L60.0775,6.126L60.0775,26.8684L60.0775,26.9552C60.0775,28.0408,61.0292,28.9683,62.3501,29.3334L62.3501,29.8104C62.3501,31.5396,63.7875,32.9539,65.5376,32.9539L68.8816,32.9539L68.8816,35.9645L7.3034,35.9645L7.3034,34.6578L1.0015,34.6578L1.0015,138.8957L7.3034,138.8957L7.3034,137.5905L116.4818,137.5905L116.4818,137.5905L116.4818,136.0139L253.3598,136.0139L253.3598,134.9647L255.8154,134.9647L255.8154,136.0139L255.8154,137.5835L283.6415,137.5835L283.6415,136.0139L298.5943,136.0139L298.5943,37.8027Z"/>
</svg>