<svg version="1.2" baseProfile="tiny" viewBox="0 0 348.432 115.461" xmlns:xlink="http://www.w3.org/1999/xlink" xmlns="http://www.w3.org/2000/svg">
<path style="fill:#ffffff;" d="M346.2439,52.1376L314.432,52.1376L314.432,25.1024L312.1533,25.1024L312.1533,10.9861C312.1533,10.3765,311.7526,9.8812,311.2613,9.8812L274.7735,9.8812L274.7735,9.8661C272.5923,9.8661,272.5923,8.237,272.5923,8.237L272.5923,8.2116C272.5923,8.3109,272.3972,8.0118,272.0871,7.4865C271.8815,7.1343,271.6271,6.6806,271.3449,6.1737C270.1567,4.0388,268.5226,0.9999,268.3902,0.9999L268.3902,0.9999L157.439,0.9999L157.439,0.9999L157.439,0.9999C157.3031,0.9999,155.6725,4.0388,154.4808,6.1749C154.1986,6.6806,153.9442,7.1355,153.7386,7.4865C153.4286,8.0118,153.2334,8.312,153.2334,8.2127L153.2334,8.2381C153.2334,8.2381,153.2334,9.8673,151.0522,9.8673L151.0522,9.8823L122.669,9.8823C122.1812,9.8823,121.777,10.3776,121.777,10.9873L121.777,27.3492C121.777,27.3492,121.777,34.9235,119.5993,34.9235L102.7909,34.9235C100.6132,34.9235,100.6132,27.3492,100.6132,27.3492L100.6132,26.1184C100.6132,25.7917,100.3449,25.5238,100.0174,25.5238L97.3415,25.5238C97.0139,25.5238,96.7456,25.7917,96.7456,26.1184C96.7456,25.7917,96.4773,25.5238,96.1533,25.5238L93.4773,25.5238C93.1498,25.5238,92.8815,25.7917,92.8815,26.1184L92.8815,27.3492C92.8815,27.3492,92.8815,31.9515,90.7003,31.9515L72.4425,31.9515L72.4425,26.9763L72.4425,26.9763C72.4425,26.7581,72.2648,26.5803,72.0453,26.5803L69.9338,26.5803C69.7143,26.5803,69.5366,26.7592,69.5366,26.9763L69.5366,26.1184C69.5366,25.7917,69.2683,25.5238,68.9408,25.5238L66.2648,25.5238C65.9373,25.5238,65.6725,25.7917,65.6725,26.1184C65.6725,25.7917,65.4042,25.5238,65.0766,25.5238L62.4007,25.5238L62.4007,25.5238C62.0732,25.5238,61.8049,25.7917,61.8049,26.1184L61.8049,26.9763C61.8049,26.7581,61.6272,26.5803,61.4077,26.5803L59.2962,26.5803C59.0766,26.5803,58.8989,26.7592,58.8989,26.9763L58.8989,32.3233C58.8989,32.5415,59.0766,32.7205,59.2962,32.7205L61.2195,32.7205C60.8989,33.9571,60.4007,34.9235,59.6272,34.9235L10.9094,34.9235L10.9094,34.9235C8.7317,34.9235,8.7317,27.3481,8.7317,27.3481L8.7317,26.1184C8.7317,25.7905,8.4634,25.5227,8.1359,25.5227L5.4599,25.5227L5.4599,25.5227C5.1324,25.5227,4.8676,25.7905,4.8676,26.1184C4.8676,25.7905,4.5993,25.5227,4.2718,25.5227L1.5958,25.5227L1.5958,25.5227C1.2683,25.5227,1.0,25.7905,1.0,26.1184L1.0,88.562C1.0,88.8876,1.2683,89.1555,1.5958,89.1555L4.2718,89.1555C4.5993,89.1555,4.8676,88.8876,4.8676,88.562C4.8676,88.8876,5.1324,89.1555,5.4599,89.1555L8.1359,89.1555C8.4634,89.1555,8.7317,88.8876,8.7317,88.562L8.7317,87.5275C8.7317,87.5275,8.7317,79.757,10.9094,79.757L59.6272,79.757C60.3937,79.757,60.8885,80.7303,61.209,81.9819L59.2927,81.9819C59.0766,81.9819,58.8989,82.1609,58.8989,82.378L58.8989,87.7261C58.8989,87.9443,59.0766,88.1221,59.2927,88.1221L61.4077,88.1221C61.6272,88.1221,61.8049,87.9432,61.8049,87.7261L61.8049,88.562C61.8049,88.8876,62.0732,89.1555,62.4007,89.1555L65.0766,89.1555C65.4007,89.1555,65.669,88.8876,65.669,88.562C65.669,88.8876,65.9373,89.1555,66.2648,89.1555L68.9408,89.1555C69.2683,89.1555,69.5366,88.8876,69.5366,88.562L69.5366,87.7261C69.5366,87.9443,69.7143,88.1221,69.9303,88.1221L72.0453,88.1221C72.2648,88.1221,72.4425,87.9432,72.4425,87.7261L72.4425,82.7301L90.7003,82.7301C92.8815,82.7301,92.8815,87.5275,92.8815,87.5275L92.8815,88.562C92.8815,88.8876,93.1498,89.1555,93.4773,89.1555L96.1533,89.1555C96.4773,89.1555,96.7456,88.8876,96.7456,88.562C96.7456,88.8876,97.0139,89.1555,97.3415,89.1555L100.0174,89.1555C100.3449,89.1555,100.6132,88.8876,100.6132,88.562L100.6132,87.5275C100.6132,87.5275,100.6132,79.757,102.7909,79.757L119.5993,79.757L119.5993,79.757C121.7805,79.757,121.7805,87.5275,121.7805,87.5275L121.7805,103.6932C121.7805,104.3005,122.1812,104.7993,122.6725,104.7993L151.0557,104.7993C153.2334,104.7993,153.2334,106.6236,153.2334,106.6236L153.2334,114.46L272.5958,114.46L272.5958,106.6236C272.5958,106.6236,272.5958,104.7993,274.7735,104.7993L311.2648,104.7993C311.7526,104.7993,312.1567,104.3005,312.1567,103.6932L312.1567,89.577L314.432,89.577L314.432,62.5418L346.2439,62.5418C346.8989,62.5418,347.432,62.0072,347.432,61.3525L347.432,53.3268C347.432,52.6722,346.8954,52.1376,346.2439,52.1376M153.2334,10.0035C153.2334,9.8338,153.7874,8.7797,154.4982,7.4865C154.7247,7.0674,154.9721,6.6205,155.2195,6.1737C156.3136,4.197,157.446,2.1545,157.446,1.9213C157.446,1.9213,157.446,1.9213,157.446,1.9213C157.446,2.1557,156.3136,4.1982,155.2195,6.1737C154.9721,6.6205,154.7247,7.0674,154.4982,7.4865C153.7874,8.7808,153.2334,9.835,153.2334,10.0035L153.2334,10.0035M153.2334,14.6624C153.2334,14.4973,153.5505,13.8519,154.0104,12.9871C154.4738,12.113,155.0871,11.0219,155.662,9.9793C156.3658,8.7081,157.0174,7.5154,157.2996,6.8919C157.3937,6.6852,157.446,6.5409,157.446,6.4774L157.446,6.4774C157.446,6.542,157.3937,6.6852,157.2996,6.893C157.0174,7.5165,156.3658,8.7092,155.662,9.9804C155.0871,11.0219,154.4738,12.113,154.0104,12.9882C153.5505,13.8542,153.2334,14.4984,153.2334,14.6624L153.2334,14.6624M153.2334,20.7483C153.2334,20.2045,156.4599,16.0872,157.2648,14.6635C157.3798,14.458,157.446,14.3114,157.446,14.2352C157.446,14.2352,157.446,14.2352,157.446,14.2352C157.446,14.3125,157.3798,14.4592,157.2648,14.6635C156.4599,16.0872,153.2334,20.2045,153.2334,20.7483L153.2334,20.7483M153.2334,28.9692C153.2334,28.333,157.446,24.6602,157.446,24.0424L157.446,24.0424C157.446,24.6602,153.2334,28.3353,153.2334,28.9703L153.2334,28.9692M157.446,34.5205C157.446,34.5217,157.446,34.5217,157.446,34.5228C157.446,35.1556,153.2334,37.4024,153.2334,38.0525C153.2334,37.4001,157.446,35.1544,157.446,34.5205M153.2334,48.086C153.2334,47.4233,157.446,46.4084,157.446,45.7664L157.446,45.7676C157.446,46.4095,153.2334,47.4244,153.2334,48.086L153.2334,48.086M153.2334,59.8931C153.2334,59.0768,157.446,59.0768,157.446,58.257L157.446,58.2582C157.446,59.0779,153.2334,59.0779,153.2334,59.8931L153.2334,59.8931M153.2334,66.4963C153.2334,67.159,157.446,68.1739,157.446,68.8159C157.446,68.1751,153.2334,67.1602,153.2334,66.4963L153.2334,66.4963M157.446,79.1693L157.446,79.1693C157.446,78.5366,153.2334,76.2908,153.2334,75.6385C153.2334,76.2885,157.446,78.5354,157.446,79.1693M153.2334,84.126C153.2334,84.7622,157.446,88.4374,157.446,89.0551L157.446,89.0562C157.446,88.4385,153.2334,84.7645,153.2334,84.126L153.2334,84.126M153.2334,87.277L153.2334,87.2747C153.2334,87.1246,153.4704,87.2516,153.8327,87.5194C153.4704,87.2516,153.2334,87.1269,153.2334,87.277M154.1115,87.7377C154.0488,87.688,153.993,87.6453,153.9373,87.6026C153.993,87.6464,154.0488,87.688,154.1115,87.7377M156.6237,89.8633C156.6028,89.8448,156.5819,89.8275,156.561,89.8125C156.4878,89.7524,156.4111,89.6913,156.3345,89.6254C156.3136,89.6081,156.2927,89.5885,156.2683,89.5712C156.446,89.719,156.6132,89.8529,156.7596,89.9684C156.7596,89.9672,156.7596,89.9672,156.7596,89.9661C156.7177,89.9383,156.6725,89.9025,156.6237,89.8633M157.3867,90.3517C157.3867,90.3517,157.3902,90.354,157.3902,90.354C157.3902,90.354,157.3902,90.3529,157.3902,90.3529L157.4076,90.3529C157.4007,90.354,157.3972,90.3552,157.3902,90.3552C157.3902,90.354,157.3867,90.3517,157.3867,90.3517M157.1184,90.2258C157.1393,90.2385,157.1568,90.2489,157.1742,90.2605C157.1568,90.2478,157.1393,90.2385,157.1184,90.2258M268.4181,90.3529L268.4355,90.3529C268.4355,90.3529,268.4355,90.354,268.4355,90.354C268.4355,90.354,268.439,90.3517,268.4425,90.3517C268.439,90.3517,268.4355,90.3552,268.4355,90.3552C268.4285,90.354,268.425,90.354,268.4181,90.3529M269.2682,89.8125C269.2439,89.8287,269.223,89.846,269.2021,89.8644C269.1672,89.8945,269.1324,89.921,269.0975,89.9464C269.2334,89.8402,269.3832,89.7201,269.54,89.5885C269.5261,89.6012,269.5087,89.6151,269.4948,89.6266C269.4181,89.6913,269.338,89.7536,269.2682,89.8125M268.6515,90.2605C268.6724,90.2489,268.6898,90.2385,268.7073,90.227C268.6864,90.2385,268.6724,90.2478,268.6515,90.2605M272.5958,87.277C272.5958,87.1269,272.3588,87.2516,271.9965,87.5194C272.3554,87.2504,272.5958,87.1246,272.5958,87.2747L272.5958,87.277M271.7177,87.7377C271.7769,87.688,271.8327,87.6464,271.8885,87.6026C271.8327,87.6464,271.7769,87.688,271.7177,87.7377M272.5958,84.1272C272.5958,84.7645,268.3798,88.4385,268.3798,89.0562L268.3798,89.0551C268.3798,88.4374,272.5958,84.7622,272.5958,84.1272L272.5958,84.1272M268.3798,79.1704L268.3798,79.1704C268.3798,78.5354,272.5958,76.2885,272.5958,75.6385C272.5958,76.2908,268.3798,78.5366,268.3798,79.1704M272.5958,66.4975C272.5958,67.1602,268.3798,68.1751,268.3798,68.8159C268.3798,68.1739,272.5958,67.159,272.5958,66.4975L272.5958,66.4975M272.5958,59.8942C272.5958,59.0791,268.3798,59.0791,268.3798,58.2582L268.3798,58.257C268.3798,59.0756,272.5958,59.0756,272.5958,59.8942L272.5958,59.8942M272.5958,48.0872C272.5958,47.4244,268.3798,46.4095,268.3798,45.7676L268.3798,45.7664C268.3798,46.4084,272.5958,47.4233,272.5958,48.0872L272.5958,48.0872M268.3798,34.5228C268.3798,34.5217,268.3798,34.5217,268.3798,34.5205C268.3798,35.1544,272.5958,37.4001,272.5958,38.0525C272.5958,37.4024,268.3798,35.1556,268.3798,34.5228M272.5958,28.9715C272.5958,28.3353,268.3798,24.6613,268.3798,24.0436L268.3798,24.0424C268.3798,24.6613,272.5958,28.3341,272.5958,28.9703L272.5958,28.9715M272.5958,20.7495C272.5958,20.2057,269.3693,16.0872,268.5609,14.6635C268.446,14.4592,268.3798,14.3125,268.3798,14.2363C268.3798,14.2363,268.3798,14.2363,268.3798,14.2352C268.3798,14.3114,268.446,14.458,268.5609,14.6635C269.3693,16.086,272.5958,20.2045,272.5958,20.7495L272.5958,20.7495M272.5958,14.6635C272.5958,14.4984,272.2787,13.853,271.8153,12.9882C271.3519,12.113,270.7421,11.0219,270.1637,9.9804C269.4599,8.7092,268.8083,7.5165,268.5261,6.893C268.432,6.6852,268.3798,6.542,268.3798,6.4774L268.3798,6.4774C268.3798,6.5409,268.432,6.6852,268.5261,6.8919C268.8083,7.5165,269.4599,8.7081,270.1637,9.9793C270.7421,11.0208,271.3519,12.113,271.8153,12.9871C272.2787,13.8519,272.5958,14.4973,272.5958,14.6635L272.5958,14.6635M272.5958,10.0047C272.5958,9.835,272.0383,8.7808,271.331,7.4865C271.101,7.0685,270.8536,6.6217,270.6097,6.1749C269.5156,4.1982,268.3798,2.1557,268.3798,1.9224C268.3798,1.9224,268.3798,1.9224,268.3798,1.9213C268.3798,2.1545,269.5156,4.197,270.6097,6.1737C270.8571,6.6205,271.101,7.0674,271.331,7.4865C272.0383,8.7797,272.5958,9.8338,272.5958,10.0047L272.5958,10.0047Z"/>
</svg>