<svg version="1.2" baseProfile="tiny" viewBox="0 0 18.000 13.000" xmlns:xlink="http://www.w3.org/1999/xlink" xmlns="http://www.w3.org/2000/svg">
<path style="fill:#ffffff;" d="M13.09,0v1.126c-3.673,2.487-6.208,4.847-8.11,7.58c-0.392-0.572-0.825-1.065-1.197-1.49L3.541,6.94   L3.349,6.723l-0.292,0.06C2.846,6.831,2.625,6.9,2.404,7.008V0H13.09z M8.078,10.01h5.012V4.255   C11.158,5.894,9.457,7.837,8.078,10.01z M0,5.005c0,1.589,0.19,2.676,0.452,3.416l0.292-0.325C0.885,7.928,1.296,7.602,1.8,7.305V0   C1.8,0,0,0.099,0,5.005z M0.804,8.795L0.492,8.549C1.025,9.97,1.8,10.01,1.8,10.01V9.792C1.498,9.418,1.156,9.082,0.804,8.795z    M2.806,11.352c-0.02,0.01-0.029,0.02-0.039,0.031l-0.735,0.778c-0.121,0.13-0.08,0.247,0.111,0.247h1.097   C3.118,12.044,2.967,11.688,2.806,11.352z M13.211,12.161l-0.726-0.778c-0.131-0.139-0.392-0.247-0.584-0.247H7.404   c-0.251,0.414-0.473,0.839-0.694,1.272H13.1C13.291,12.408,13.341,12.291,13.211,12.161z M15.494,4.324   C15.333,0.099,13.713,0,13.713,0v0.711l0.07-0.05l0.182,0.661l0.423,1.512l0.091,0.326l-0.273,0.196   c-0.16,0.129-0.332,0.257-0.492,0.386v6.268c0,0,1.62-0.099,1.781-4.324H18V4.324H15.494z M13.713,2.29l-0.231-0.829   c-0.13,0.089-0.261,0.178-0.392,0.276c-3.32,2.261-6.068,4.71-8.13,7.887C4.436,8.678,3.702,7.896,3.159,7.265   c-0.242,0.05-0.503,0.148-0.755,0.287C2.183,7.65,1.981,7.77,1.8,7.896C1.468,8.105,1.206,8.312,1.125,8.409   C1.367,8.599,1.599,8.814,1.8,9.042C2.021,9.26,2.223,9.497,2.404,9.753c0.071,0.079,0.131,0.168,0.191,0.257   c0.251,0.354,0.474,0.74,0.654,1.136c0.211,0.414,0.382,0.839,0.513,1.263C3.833,12.604,3.883,12.804,3.933,13h1.943   c0.09-0.196,0.181-0.396,0.281-0.592c0.211-0.434,0.434-0.858,0.674-1.272c0.201-0.386,0.423-0.762,0.654-1.126   c1.469-2.369,3.351-4.562,5.605-6.387c0.201-0.178,0.412-0.346,0.623-0.504c0.061-0.05,0.131-0.098,0.191-0.148L13.713,2.29z"/>
</svg>