<svg version="1.2" baseProfile="tiny" id="EdgeSVG_nFx56" x="0px" y="0px" width="348.432px" height="115.461px" viewBox="0 0 348.432 115.461" xmlns:xlink="http://www.w3.org/1999/xlink" xmlns="http://www.w3.org/2000/svg">
  <linearGradient id="SVGID_1_" gradientUnits="userSpaceOnUse" x1="0" y1="57.7305" x2="348.4321" y2="57.7305">
    <stop offset="0" style="stop-color:#000000;stop-opacity:0.5"/>
    <stop offset="1" style="stop-color:#000000;stop-opacity:0.5"/>
  </linearGradient>
  <path fill="url(#SVGID_1_)" d="M346.243,51.137h-30.811V24.102h-2.277V10.986c0-1.161-0.849-2.105-1.892-2.105h-35.49V8.866h-1&#xD;&#xA;&#x9;&#x9;c-0.988,0-1.163-0.413-1.179-0.629V8.212h-0.738c-0.038-0.071-0.075-0.143-0.117-0.221l0.567-0.439&#xD;&#xA;&#x9;&#x9;c-0.071-0.092-0.193-0.296-0.354-0.569c-0.202-0.347-0.455-0.794-0.732-1.294l-0.892-1.612C269.083,0,269.083,0,268.39,0l-0.029,0&#xD;&#xA;&#x9;&#x9;H158.438v0h-1c-0.693,0-0.693,0-2.933,4.064l-0.899,1.625c-0.277,0.499-0.53,0.947-0.729,1.291&#xD;&#xA;&#x9;&#x9;c-0.162,0.276-0.284,0.48-0.355,0.572l0.534,0.502c-0.029,0.054-0.057,0.107-0.083,0.158h-0.738v0.025&#xD;&#xA;&#x9;&#x9;c0,0.064-0.033,0.629-1.179,0.629h-1v0.015h-27.383c-1.043,0-1.892,0.944-1.892,2.105v16.362c0,3.067-0.591,6.266-1.179,6.575h-1&#xD;&#xA;&#x9;&#x9;h-15.781c-0.62-0.345-1.205-3.524-1.207-6.575v-1.23c0-0.879-0.715-1.595-1.594-1.595h-2.677c-0.21,0-0.41,0.043-0.594,0.118&#xD;&#xA;&#x9;&#x9;c-0.184-0.075-0.384-0.118-0.595-0.118h-2.676c-0.879,0-1.595,0.715-1.595,1.595v1.229c-0.003,1.469-0.464,3.603-1.179,3.603h-1&#xD;&#xA;&#x9;&#x9;H73.444v-3.975c0-0.77-0.626-1.396-1.397-1.396h-1.611c-0.222-0.614-0.805-1.056-1.494-1.056h-2.676&#xD;&#xA;&#x9;&#x9;c-0.21,0-0.411,0.043-0.595,0.118c-0.184-0.075-0.384-0.118-0.595-0.118H62.4c-0.689,0-1.272,0.442-1.495,1.056h-1.611&#xD;&#xA;&#x9;&#x9;c-0.77,0-1.396,0.626-1.396,1.396v5.347c0,0.771,0.626,1.397,1.396,1.397h0.521c-0.063,0.097-0.126,0.17-0.189,0.203h-1H10.938&#xD;&#xA;&#x9;&#x9;c-0.62-0.345-1.205-3.524-1.207-6.575v-1.23c0-0.879-0.715-1.595-1.594-1.595H5.46c-0.21,0-0.41,0.043-0.594,0.118&#xD;&#xA;&#x9;&#x9;c-0.184-0.075-0.384-0.118-0.595-0.118H1.595C0.715,24.523,0,25.239,0,26.118v62.444c0,0.879,0.715,1.594,1.595,1.594h2.676&#xD;&#xA;&#x9;&#x9;c0.21,0,0.411-0.043,0.595-0.117c0.184,0.074,0.384,0.117,0.594,0.117h2.677c0.879,0,1.594-0.715,1.594-1.594v-1.034&#xD;&#xA;&#x9;&#x9;c0.001-3.15,0.597-6.445,1.179-6.771h1h47.682c0.069,0.041,0.137,0.117,0.204,0.225h-0.501c-0.77,0-1.396,0.626-1.396,1.396v5.348&#xD;&#xA;&#x9;&#x9;c0,0.771,0.626,1.396,1.396,1.396h1.618c0.228,0.602,0.807,1.033,1.488,1.033h2.676c0.21,0,0.411-0.043,0.595-0.117&#xD;&#xA;&#x9;&#x9;c0.184,0.074,0.384,0.117,0.595,0.117h2.676c0.681,0,1.259-0.432,1.487-1.033h1.618c0.771,0,1.397-0.626,1.397-1.396V83.73h16.259&#xD;&#xA;&#x9;&#x9;h1c0.66,0,1.175,2.042,1.179,3.799v1.033c0,0.879,0.715,1.594,1.595,1.594h2.676c0.21,0,0.411-0.043,0.595-0.117&#xD;&#xA;&#x9;&#x9;c0.184,0.074,0.384,0.117,0.594,0.117h2.677c0.879,0,1.594-0.715,1.594-1.594v-1.034c0.001-3.15,0.597-6.445,1.179-6.771h1h15.773&#xD;&#xA;&#x9;&#x9;c0.624,0.37,1.212,3.64,1.214,6.771v16.165c0,1.161,0.849,2.106,1.892,2.106h27.383h1c0.941,0,1.161,0.456,1.179,0.841v8.82&#xD;&#xA;&#x9;&#x9;h121.362v-8.836c0-0.193,0.085-0.825,1.179-0.825h1h35.49c1.043,0,1.892-0.945,1.892-2.106V90.577h2.277V63.542h30.811&#xD;&#xA;&#x9;&#x9;c1.207,0,2.189-0.982,2.189-2.189v-8.026C348.432,52.119,347.45,51.137,346.243,51.137z"/>
</svg>