<svg version="1.2" baseProfile="tiny" viewBox="0 0 287.662 133.611" xmlns:xlink="http://www.w3.org/1999/xlink" xmlns="http://www.w3.org/2000/svg">
<path style="fill:#ffffff;" d="M251.1289,37.4806L251.1289,131.4879C251.1289,132.1052,250.6226,132.6116,250.007,132.6116L239.5994,132.6116L239.5994,132.6116L233.6966,132.6116C233.0781,132.6116,232.5747,132.1052,232.5747,131.4879L232.5747,131.862C232.5747,132.2735,232.2382,132.6116,231.8268,132.6116L75.8622,132.6116L75.8622,132.6116C75.4509,132.6116,75.1143,132.2735,75.1143,131.862L75.1143,37.1051C75.1143,36.6936,75.4509,36.3569,75.8622,36.3569L231.8268,36.3569C232.2382,36.3569,232.5747,36.6936,232.5747,37.1051L232.5747,37.4806C232.5747,36.8619,233.0781,36.3569,233.6966,36.3569L239.5994,36.3569L250.007,36.3569C250.6226,36.3569,251.1289,36.8619,251.1289,37.4806M285.1651,76.209L253.6632,76.209L253.6632,43.6293L251.1289,39.9711L251.1289,125.255L253.6632,121.5954L253.6632,89.0157L285.1651,89.0157C285.9878,89.0157,286.6609,88.3569,286.6609,87.5526L286.6609,77.6734C286.6609,76.8677,285.9878,76.209,285.1651,76.209M74.3664,36.3569L73.4919,36.3569L73.4919,18.9674C73.4919,18.3488,72.9885,17.8437,72.37,17.8437L71.2481,17.8437L71.2481,2.1231C71.2481,1.5045,70.7418,0.9994,70.1234,0.9994L43.7361,0.9994L43.7361,0.9994C43.1177,0.9994,42.6114,1.5045,42.6114,2.1231L42.6114,17.8437L41.4895,17.8437C40.871,17.8437,40.3647,18.3488,40.3647,18.9674L40.3647,36.3582L38.8056,36.3582C37.7758,36.3582,36.9329,37.2,36.9329,38.2288L36.9329,44.5913C36.9329,44.1798,36.5964,43.8431,36.185,43.8431L36.2771,43.8431L36.2771,39.1801C36.2771,38.5615,35.7736,38.0564,35.1552,38.0564L34.0333,38.0564L34.0333,22.3344C34.0333,21.7171,33.527,21.2121,32.9085,21.2121L6.5213,21.2121L6.5213,21.2121C5.9028,22.3344,5.3994,21.7171,5.3994,22.3344L5.3994,38.0564L4.2747,38.0564L4.2747,38.0564C3.6562,38.0564,3.1528,38.5615,3.1528,39.1787L3.1528,43.8431L2.8709,43.8431L2.8709,43.8431C1.841,43.8431,1.0011,44.6862,1.0011,45.715L1.0011,123.2535C1.0011,124.2836,1.841,125.1254,2.8709,125.1254L36.185,125.1254C36.5964,125.1254,36.9329,124.7887,36.9329,124.3758L36.9329,130.7384C36.9329,131.7685,37.7758,132.6116,38.8056,132.6116L74.3664,132.6116C74.7777,132.6116,75.1143,132.2735,75.1143,131.862L75.1143,37.1051C75.1143,36.6936,74.7749,36.3569,74.3664,36.3569Z"/>
</svg>