<svg version="1.2" baseProfile="tiny" id="EdgeSVG_HWxmi" x="0px" y="0px" width="287.662px" height="133.611px" viewBox="0 0 287.662 133.611" xmlns:xlink="http://www.w3.org/1999/xlink" xmlns="http://www.w3.org/2000/svg">
  <g>
    <path fill="#9A6F00" d="M71.247,2.123v15.893H42.612V2.123C42.612,1.505,43.117,1,43.735,1h26.389&#xD;&#xA;&#x9;&#x9;&#x9;C70.741,1,71.247,1.505,71.247,2.123z"/>
    <path fill="#9A6F00" d="M34.033,22.335v15.893H5.398V22.335c0-0.618,0.505-1.123,1.123-1.123H32.91&#xD;&#xA;&#x9;&#x9;&#x9;C33.527,21.213,34.033,21.718,34.033,22.335z"/>
  </g>
  <g>
    <linearGradient id="SVGID_2_" gradientUnits="userSpaceOnUse" x1="42.6123" y1="9.5078" x2="71.2471" y2="9.5078">
      <stop offset="0" style="stop-color:#000000;stop-opacity:0.2"/>
      <stop offset="0.0483" style="stop-color:#FFFFFF;stop-opacity:0.05"/>
      <stop offset="0.178" style="stop-color:#000000;stop-opacity:0.08"/>
      <stop offset="0.183" style="stop-color:#070707;stop-opacity:0.0827"/>
      <stop offset="0.2354" style="stop-color:#474747;stop-opacity:0.1104"/>
      <stop offset="0.287" style="stop-color:#7F7F7F;stop-opacity:0.1377"/>
      <stop offset="0.3365" style="stop-color:#ADADAD;stop-opacity:0.1639"/>
      <stop offset="0.3836" style="stop-color:#D1D1D1;stop-opacity:0.1888"/>
      <stop offset="0.4276" style="stop-color:#EAEAEA;stop-opacity:0.2121"/>
      <stop offset="0.4674" style="stop-color:#FAFAFA;stop-opacity:0.2332"/>
      <stop offset="0.4992" style="stop-color:#FFFFFF;stop-opacity:0.25"/>
      <stop offset="0.5284" style="stop-color:#F9F9F9;stop-opacity:0.2343"/>
      <stop offset="0.5679" style="stop-color:#E8E8E8;stop-opacity:0.213"/>
      <stop offset="0.6133" style="stop-color:#CBCBCB;stop-opacity:0.1885"/>
      <stop offset="0.6631" style="stop-color:#A4A4A4;stop-opacity:0.1616"/>
      <stop offset="0.7165" style="stop-color:#717171;stop-opacity:0.1329"/>
      <stop offset="0.772" style="stop-color:#343434;stop-opacity:0.1029"/>
      <stop offset="0.8145" style="stop-color:#000000;stop-opacity:0.08"/>
      <stop offset="0.9412" style="stop-color:#FFFFFF;stop-opacity:0.05"/>
      <stop offset="0.9634" style="stop-color:#939393;stop-opacity:0.1068"/>
      <stop offset="0.9813" style="stop-color:#444444;stop-opacity:0.1522"/>
      <stop offset="0.9938" style="stop-color:#131313;stop-opacity:0.1842"/>
      <stop offset="1" style="stop-color:#000000;stop-opacity:0.2"/>
    </linearGradient>
    <path fill="url(#SVGID_2_)" d="M71.247,2.123v15.893H42.612V2.123C42.612,1.505,43.117,1,43.735,1h26.389&#xD;&#xA;&#x9;&#x9;&#x9;C70.741,1,71.247,1.505,71.247,2.123z"/>
    <linearGradient id="SVGID_3_" gradientUnits="userSpaceOnUse" x1="5.3984" y1="29.7207" x2="34.0332" y2="29.7207">
      <stop offset="0" style="stop-color:#000000;stop-opacity:0.2"/>
      <stop offset="0.0483" style="stop-color:#FFFFFF;stop-opacity:0.05"/>
      <stop offset="0.178" style="stop-color:#000000;stop-opacity:0.08"/>
      <stop offset="0.183" style="stop-color:#070707;stop-opacity:0.0827"/>
      <stop offset="0.2354" style="stop-color:#474747;stop-opacity:0.1104"/>
      <stop offset="0.287" style="stop-color:#7F7F7F;stop-opacity:0.1377"/>
      <stop offset="0.3365" style="stop-color:#ADADAD;stop-opacity:0.1639"/>
      <stop offset="0.3836" style="stop-color:#D1D1D1;stop-opacity:0.1888"/>
      <stop offset="0.4276" style="stop-color:#EAEAEA;stop-opacity:0.2121"/>
      <stop offset="0.4674" style="stop-color:#FAFAFA;stop-opacity:0.2332"/>
      <stop offset="0.4992" style="stop-color:#FFFFFF;stop-opacity:0.25"/>
      <stop offset="0.5284" style="stop-color:#F9F9F9;stop-opacity:0.2343"/>
      <stop offset="0.5679" style="stop-color:#E8E8E8;stop-opacity:0.213"/>
      <stop offset="0.6133" style="stop-color:#CBCBCB;stop-opacity:0.1885"/>
      <stop offset="0.6631" style="stop-color:#A4A4A4;stop-opacity:0.1616"/>
      <stop offset="0.7165" style="stop-color:#717171;stop-opacity:0.1329"/>
      <stop offset="0.772" style="stop-color:#343434;stop-opacity:0.1029"/>
      <stop offset="0.8145" style="stop-color:#000000;stop-opacity:0.08"/>
      <stop offset="0.9412" style="stop-color:#FFFFFF;stop-opacity:0.05"/>
      <stop offset="0.9634" style="stop-color:#939393;stop-opacity:0.1068"/>
      <stop offset="0.9813" style="stop-color:#444444;stop-opacity:0.1522"/>
      <stop offset="0.9938" style="stop-color:#131313;stop-opacity:0.1842"/>
      <stop offset="1" style="stop-color:#000000;stop-opacity:0.2"/>
    </linearGradient>
    <path fill="url(#SVGID_3_)" d="M34.033,22.335v15.893H5.398V22.335c0-0.618,0.505-1.123,1.123-1.123H32.91&#xD;&#xA;&#x9;&#x9;&#x9;C33.527,21.213,34.033,21.718,34.033,22.335z"/>
  </g>
  <g>
    <linearGradient id="SVGID_4_" gradientUnits="userSpaceOnUse" x1="56.9297" y1="1" x2="56.9297" y2="18.0156">
      <stop offset="0" style="stop-color:#FFFFFF;stop-opacity:0.15"/>
      <stop offset="0.001" style="stop-color:#FFFFFF;stop-opacity:0.1577"/>
      <stop offset="0.0271" style="stop-color:#FFFFFF;stop-opacity:0.35"/>
      <stop offset="0.0452" style="stop-color:#FCFCFC;stop-opacity:0.2891"/>
      <stop offset="0.1011" style="stop-color:#F7F7F7;stop-opacity:0.1"/>
      <stop offset="1" style="stop-color:#000000;stop-opacity:0.1"/>
    </linearGradient>
    <path fill="url(#SVGID_4_)" d="M71.247,2.123v15.893H42.612V2.123C42.612,1.505,43.117,1,43.735,1h26.389&#xD;&#xA;&#x9;&#x9;&#x9;C70.741,1,71.247,1.505,71.247,2.123z"/>
    <linearGradient id="SVGID_5_" gradientUnits="userSpaceOnUse" x1="19.7158" y1="21.2129" x2="19.7158" y2="38.2285">
      <stop offset="0" style="stop-color:#FFFFFF;stop-opacity:0.15"/>
      <stop offset="0.001" style="stop-color:#FFFFFF;stop-opacity:0.1577"/>
      <stop offset="0.0271" style="stop-color:#FFFFFF;stop-opacity:0.35"/>
      <stop offset="0.0452" style="stop-color:#FCFCFC;stop-opacity:0.2891"/>
      <stop offset="0.1011" style="stop-color:#F7F7F7;stop-opacity:0.1"/>
      <stop offset="1" style="stop-color:#000000;stop-opacity:0.1"/>
    </linearGradient>
    <path fill="url(#SVGID_5_)" d="M34.033,22.335v15.893H5.398V22.335c0-0.618,0.505-1.123,1.123-1.123H32.91&#xD;&#xA;&#x9;&#x9;&#x9;C33.527,21.213,34.033,21.718,34.033,22.335z"/>
  </g>
  <g>
    <linearGradient id="SVGID_6_" gradientUnits="userSpaceOnUse" x1="40.3662" y1="27.1006" x2="73.4927" y2="27.1006">
      <stop offset="0" style="stop-color:#000000;stop-opacity:0.2"/>
      <stop offset="0.1176" style="stop-color:#FFFFFF;stop-opacity:0.05"/>
      <stop offset="0.4992" style="stop-color:#FFFFFF;stop-opacity:0.25"/>
      <stop offset="0.8899" style="stop-color:#FFFFFF;stop-opacity:0.05"/>
      <stop offset="0.9316" style="stop-color:#939393;stop-opacity:0.1068"/>
      <stop offset="0.9649" style="stop-color:#444444;stop-opacity:0.1522"/>
      <stop offset="0.9884" style="stop-color:#131313;stop-opacity:0.1842"/>
      <stop offset="1" style="stop-color:#000000;stop-opacity:0.2"/>
    </linearGradient>
    <path fill="url(#SVGID_6_)" d="M73.493,18.967v17.391H40.366V18.967c0-0.618,0.505-1.123,1.123-1.123H72.37&#xD;&#xA;&#x9;&#x9;&#x9;C72.987,17.844,73.493,18.349,73.493,18.967z"/>
    <linearGradient id="SVGID_7_" gradientUnits="userSpaceOnUse" x1="3.1523" y1="40.9502" x2="36.2788" y2="40.9502">
      <stop offset="0" style="stop-color:#000000;stop-opacity:0.2"/>
      <stop offset="0.1176" style="stop-color:#FFFFFF;stop-opacity:0.05"/>
      <stop offset="0.4992" style="stop-color:#FFFFFF;stop-opacity:0.25"/>
      <stop offset="0.8899" style="stop-color:#FFFFFF;stop-opacity:0.05"/>
      <stop offset="0.9316" style="stop-color:#939393;stop-opacity:0.1068"/>
      <stop offset="0.9649" style="stop-color:#444444;stop-opacity:0.1522"/>
      <stop offset="0.9884" style="stop-color:#131313;stop-opacity:0.1842"/>
      <stop offset="1" style="stop-color:#000000;stop-opacity:0.2"/>
    </linearGradient>
    <path fill="url(#SVGID_7_)" d="M36.279,39.18v4.664H3.152V39.18c0-0.618,0.505-1.123,1.123-1.123h30.881&#xD;&#xA;&#x9;&#x9;&#x9;C35.773,38.057,36.279,38.562,36.279,39.18z"/>
  </g>
  <linearGradient id="SVGID_8_" gradientUnits="userSpaceOnUse" x1="56.9292" y1="17.8438" x2="56.9292" y2="36.3574">
    <stop offset="0" style="stop-color:#FFFFFF;stop-opacity:0.15"/>
    <stop offset="0.001" style="stop-color:#FFFFFF;stop-opacity:0.1577"/>
    <stop offset="0.0271" style="stop-color:#FFFFFF;stop-opacity:0.35"/>
    <stop offset="0.0452" style="stop-color:#FCFCFC;stop-opacity:0.2891"/>
    <stop offset="0.1011" style="stop-color:#F7F7F7;stop-opacity:0.1"/>
    <stop offset="1" style="stop-color:#FFFFFF;stop-opacity:0"/>
  </linearGradient>
  <path fill="url(#SVGID_8_)" d="M73.493,18.967v17.391H40.366V18.967c0-0.618,0.505-1.123,1.123-1.123H72.37&#xD;&#xA;&#x9;&#x9;C72.987,17.844,73.493,18.349,73.493,18.967z"/>
  <linearGradient id="SVGID_9_" gradientUnits="userSpaceOnUse" x1="19.7153" y1="38.0566" x2="19.7153" y2="43.8433">
    <stop offset="0" style="stop-color:#FFFFFF;stop-opacity:0.15"/>
    <stop offset="0.0032" style="stop-color:#FFFFFF;stop-opacity:0.1577"/>
    <stop offset="0.0845" style="stop-color:#FFFFFF;stop-opacity:0.35"/>
    <stop offset="0.1422" style="stop-color:#FCFCFC;stop-opacity:0.2891"/>
    <stop offset="0.3213" style="stop-color:#F7F7F7;stop-opacity:0.1"/>
    <stop offset="1" style="stop-color:#FFFFFF;stop-opacity:0"/>
  </linearGradient>
  <path fill="url(#SVGID_9_)" d="M36.279,39.18v4.664H3.152V39.18c0-0.618,0.505-1.123,1.123-1.123h30.881&#xD;&#xA;&#x9;&#x9;C35.773,38.057,36.279,38.562,36.279,39.18z"/>
  <linearGradient id="SVGID_10_" gradientUnits="userSpaceOnUse" x1="56.0234" y1="36.3574" x2="56.0234" y2="132.6118">
    <stop offset="0" style="stop-color:#FFFFFF;stop-opacity:0.2"/>
    <stop offset="0.0136" style="stop-color:#FFFFFF;stop-opacity:0.5"/>
    <stop offset="0.2112" style="stop-color:#FFFFFF;stop-opacity:0.3663"/>
    <stop offset="0.2353" style="stop-color:#FFFFFF;stop-opacity:0.35"/>
    <stop offset="0.2519" style="stop-color:#FFFFFF;stop-opacity:0.15"/>
    <stop offset="0.7511" style="stop-color:#FFFFFF;stop-opacity:0.1"/>
    <stop offset="0.7677" style="stop-color:#000000;stop-opacity:0.25"/>
    <stop offset="0.9755" style="stop-color:#000000;stop-opacity:0.55"/>
    <stop offset="0.9816" style="stop-color:#000000;stop-opacity:0.45"/>
    <stop offset="1" style="stop-color:#000000;stop-opacity:0.75"/>
  </linearGradient>
  <path fill="url(#SVGID_10_)" d="M75.113,37.105v94.757c0,0.411-0.337,0.749-0.749,0.749H38.806c-1.029,0-1.872-0.843-1.872-1.872&#xD;&#xA;&#x9;&#x9;V38.229c0-1.029,0.843-1.871,1.872-1.871h35.559C74.776,36.357,75.113,36.694,75.113,37.105z"/>
  <linearGradient id="SVGID_11_" gradientUnits="userSpaceOnUse" x1="36.9336" y1="84.4844" x2="75.1133" y2="84.4844">
    <stop offset="0" style="stop-color:#000000;stop-opacity:0.25"/>
    <stop offset="4.666794e-004" style="stop-color:#000000;stop-opacity:0.2486"/>
    <stop offset="0.083" style="stop-color:#000000;stop-opacity:0"/>
    <stop offset="0.9653" style="stop-color:#000000;stop-opacity:0"/>
    <stop offset="1" style="stop-color:#000000;stop-opacity:0.25"/>
  </linearGradient>
  <path fill="url(#SVGID_11_)" d="M75.113,37.105v94.757c0,0.411-0.337,0.749-0.749,0.749H38.806c-1.029,0-1.872-0.843-1.872-1.872&#xD;&#xA;&#x9;&#x9;V38.229c0-1.029,0.843-1.871,1.872-1.871h35.559C74.776,36.357,75.113,36.694,75.113,37.105z"/>
  <linearGradient id="SVGID_12_" gradientUnits="userSpaceOnUse" x1="244.8042" y1="36.3579" x2="244.8042" y2="132.6099">
    <stop offset="0" style="stop-color:#FFFFFF;stop-opacity:0.1"/>
    <stop offset="0.0106" style="stop-color:#FFFFFF;stop-opacity:0.35"/>
    <stop offset="0.0211" style="stop-color:#FFFFFF;stop-opacity:0.1"/>
    <stop offset="0.9816" style="stop-color:#000000;stop-opacity:0.2"/>
    <stop offset="1" style="stop-color:#000000;stop-opacity:0.45"/>
  </linearGradient>
  <path fill="url(#SVGID_12_)" d="M251.129,131.486c0,0.617-0.505,1.123-1.123,1.123h-10.405c-0.617,0-1.123-0.506-1.123-1.123&#xD;&#xA;&#x9;&#x9;V37.481c0-0.618,0.505-1.123,1.123-1.123h10.405c0.617,0,1.123,0.505,1.123,1.123V131.486z"/>
  <linearGradient id="SVGID_13_" gradientUnits="userSpaceOnUse" x1="238.479" y1="84.4834" x2="251.1294" y2="84.4834">
    <stop offset="0" style="stop-color:#000000;stop-opacity:0.25"/>
    <stop offset="0.1" style="stop-color:#000000;stop-opacity:0"/>
    <stop offset="0.9" style="stop-color:#000000;stop-opacity:0"/>
    <stop offset="1" style="stop-color:#000000;stop-opacity:0.25"/>
  </linearGradient>
  <path fill="url(#SVGID_13_)" d="M251.129,131.486c0,0.617-0.505,1.123-1.123,1.123h-10.405c-0.617,0-1.123-0.506-1.123-1.123&#xD;&#xA;&#x9;&#x9;V37.481c0-0.618,0.505-1.123,1.123-1.123h10.405c0.617,0,1.123,0.505,1.123,1.123V131.486z"/>
  <polygon fill="#CCCCCC" points="253.663,121.596 251.129,125.255 251.129,39.971 253.663,43.63 &#x9;"/>
  <linearGradient id="SVGID_14_" gradientUnits="userSpaceOnUse" x1="251.1294" y1="82.6128" x2="253.6626" y2="82.6128">
    <stop offset="0" style="stop-color:#000000;stop-opacity:0.3"/>
    <stop offset="0.3988" style="stop-color:#000000;stop-opacity:0"/>
    <stop offset="1" style="stop-color:#000000;stop-opacity:0"/>
  </linearGradient>
  <polygon fill="url(#SVGID_14_)" points="253.663,121.596 251.129,125.255 251.129,39.971 253.663,43.63 &#x9;"/>
  <linearGradient id="SVGID_15_" gradientUnits="userSpaceOnUse" x1="252.396" y1="39.9707" x2="252.396" y2="125.2554">
    <stop offset="0.0123" style="stop-color:#000000;stop-opacity:0.2"/>
    <stop offset="0.0462" style="stop-color:#FFFFFF;stop-opacity:0.2"/>
    <stop offset="0.0967" style="stop-color:#000000;stop-opacity:0.2"/>
    <stop offset="0.1098" style="stop-color:#393939;stop-opacity:0.2255"/>
    <stop offset="0.1272" style="stop-color:#7F7F7F;stop-opacity:0.2595"/>
    <stop offset="0.143" style="stop-color:#B6B6B6;stop-opacity:0.2902"/>
    <stop offset="0.1564" style="stop-color:#DEDEDE;stop-opacity:0.3165"/>
    <stop offset="0.1671" style="stop-color:#F6F6F6;stop-opacity:0.3373"/>
    <stop offset="0.1736" style="stop-color:#FFFFFF;stop-opacity:0.35"/>
    <stop offset="0.2989" style="stop-color:#FFFFFF;stop-opacity:0.2"/>
    <stop offset="0.8589" style="stop-color:#000000;stop-opacity:0.75"/>
    <stop offset="0.9325" style="stop-color:#000000;stop-opacity:0.45"/>
    <stop offset="0.9755" style="stop-color:#000000;stop-opacity:0.75"/>
  </linearGradient>
  <polygon fill="url(#SVGID_15_)" points="253.663,121.596 251.129,125.255 251.129,39.971 253.663,43.63 &#x9;"/>
  <path fill="#CCCCCC" d="M286.662,77.673v9.88c0,0.805-0.674,1.463-1.497,1.463h-31.502c0-2.474,0-10.147,0-12.807h31.502&#xD;&#xA;&#x9;&#x9;C285.988,76.209,286.662,76.868,286.662,77.673z"/>
  <linearGradient id="SVGID_16_" gradientUnits="userSpaceOnUse" x1="270.1626" y1="76.2095" x2="270.1626" y2="89.0161">
    <stop offset="0.0123" style="stop-color:#000000;stop-opacity:0.2"/>
    <stop offset="0.0736" style="stop-color:#000000;stop-opacity:0"/>
    <stop offset="0.1227" style="stop-color:#000000;stop-opacity:0.4"/>
    <stop offset="0.1634" style="stop-color:#393939;stop-opacity:0.4596"/>
    <stop offset="0.2177" style="stop-color:#7F7F7F;stop-opacity:0.5389"/>
    <stop offset="0.2666" style="stop-color:#B6B6B6;stop-opacity:0.6105"/>
    <stop offset="0.3085" style="stop-color:#DEDEDE;stop-opacity:0.6718"/>
    <stop offset="0.3417" style="stop-color:#F6F6F6;stop-opacity:0.7203"/>
    <stop offset="0.362" style="stop-color:#FFFFFF;stop-opacity:0.75"/>
    <stop offset="0.4042" style="stop-color:#F6F6F6;stop-opacity:0.75"/>
    <stop offset="0.473" style="stop-color:#DEDEDE;stop-opacity:0.75"/>
    <stop offset="0.56" style="stop-color:#B6B6B6;stop-opacity:0.75"/>
    <stop offset="0.6617" style="stop-color:#7F7F7F;stop-opacity:0.75"/>
    <stop offset="0.7743" style="stop-color:#393939;stop-opacity:0.75"/>
    <stop offset="0.8589" style="stop-color:#000000;stop-opacity:0.75"/>
    <stop offset="0.9325" style="stop-color:#000000;stop-opacity:0.45"/>
    <stop offset="0.9755" style="stop-color:#000000;stop-opacity:0.75"/>
  </linearGradient>
  <path fill="url(#SVGID_16_)" d="M286.662,77.673v9.88c0,0.805-0.674,1.463-1.497,1.463h-31.502c0-2.474,0-10.147,0-12.807h31.502&#xD;&#xA;&#x9;&#x9;C285.988,76.209,286.662,76.868,286.662,77.673z"/>
  <linearGradient id="SVGID_17_" gradientUnits="userSpaceOnUse" x1="253.6626" y1="82.6128" x2="286.6621" y2="82.6128">
    <stop offset="0" style="stop-color:#000000;stop-opacity:0.2"/>
    <stop offset="0.1227" style="stop-color:#000000;stop-opacity:0.1"/>
    <stop offset="0.1683" style="stop-color:#000000;stop-opacity:0.0941"/>
    <stop offset="0.8957" style="stop-color:#000000;stop-opacity:0"/>
    <stop offset="0.9962" style="stop-color:#000000;stop-opacity:0.2891"/>
    <stop offset="1" style="stop-color:#000000;stop-opacity:0.3"/>
  </linearGradient>
  <path fill="url(#SVGID_17_)" d="M286.662,77.673v9.88c0,0.805-0.674,1.463-1.497,1.463h-31.502c0-2.474,0-10.147,0-12.807h31.502&#xD;&#xA;&#x9;&#x9;C285.988,76.209,286.662,76.868,286.662,77.673z"/>
  <linearGradient id="SVGID_18_" gradientUnits="userSpaceOnUse" x1="236.0874" y1="36.3574" x2="236.0874" y2="132.6118">
    <stop offset="0" style="stop-color:#FFFFFF;stop-opacity:0.1"/>
    <stop offset="0.009" style="stop-color:#FFFFFF;stop-opacity:0.35"/>
    <stop offset="0.0211" style="stop-color:#FFFFFF;stop-opacity:0.1"/>
    <stop offset="0.098" style="stop-color:#FFFFFF;stop-opacity:0.1"/>
    <stop offset="0.1071" style="stop-color:#FFFFFF;stop-opacity:0.35"/>
    <stop offset="0.224" style="stop-color:#FFFFFF;stop-opacity:0.2609"/>
    <stop offset="0.2383" style="stop-color:#FFFFFF;stop-opacity:0.25"/>
    <stop offset="0.2549" style="stop-color:#999999;stop-opacity:0.25"/>
    <stop offset="0.7511" style="stop-color:#3F3F3F;stop-opacity:0.25"/>
    <stop offset="0.7677" style="stop-color:#000000;stop-opacity:0.25"/>
    <stop offset="0.9755" style="stop-color:#000000;stop-opacity:0.55"/>
    <stop offset="0.9816" style="stop-color:#000000;stop-opacity:0.45"/>
    <stop offset="1" style="stop-color:#000000;stop-opacity:0.75"/>
  </linearGradient>
  <path fill="url(#SVGID_18_)" d="M239.6,132.611h-5.903c-0.618,0-1.123-0.506-1.123-1.123V37.48c0-0.618,0.505-1.123,1.123-1.123&#xD;&#xA;&#x9;&#x9;h5.903c-0.618,0-1.123,0.505-1.123,1.123v94.008C238.477,132.105,238.982,132.611,239.6,132.611z"/>
  <linearGradient id="SVGID_19_" gradientUnits="userSpaceOnUse" x1="153.8442" y1="36.3574" x2="153.8442" y2="132.6118">
    <stop offset="0" style="stop-color:#FFFFFF;stop-opacity:0.1"/>
    <stop offset="0.0136" style="stop-color:#FFFFFF;stop-opacity:0.35"/>
    <stop offset="0.2112" style="stop-color:#FFFFFF;stop-opacity:0.2609"/>
    <stop offset="0.2353" style="stop-color:#FFFFFF;stop-opacity:0.25"/>
    <stop offset="0.2519" style="stop-color:#999999;stop-opacity:0.25"/>
    <stop offset="0.7511" style="stop-color:#3F3F3F;stop-opacity:0.25"/>
    <stop offset="0.7677" style="stop-color:#000000;stop-opacity:0.25"/>
    <stop offset="0.9755" style="stop-color:#000000;stop-opacity:0.55"/>
    <stop offset="0.9816" style="stop-color:#000000;stop-opacity:0.45"/>
    <stop offset="1" style="stop-color:#000000;stop-opacity:0.75"/>
  </linearGradient>
  <path fill="url(#SVGID_19_)" d="M75.114,131.862c0,0.411,0.337,0.749,0.749,0.749h155.963c0.411,0,0.748-0.338,0.748-0.749V37.105&#xD;&#xA;&#x9;&#x9;c0-0.412-0.337-0.748-0.748-0.748H75.863c-0.412,0-0.749,0.336-0.749,0.748V131.862z"/>
  <linearGradient id="SVGID_20_" gradientUnits="userSpaceOnUse" x1="18.9668" y1="43.8433" x2="18.9668" y2="125.1255">
    <stop offset="0" style="stop-color:#FFFFFF;stop-opacity:0.1"/>
    <stop offset="0.0136" style="stop-color:#FFFFFF;stop-opacity:0.35"/>
    <stop offset="0.2112" style="stop-color:#FFFFFF;stop-opacity:0.2609"/>
    <stop offset="0.2353" style="stop-color:#FFFFFF;stop-opacity:0.25"/>
    <stop offset="0.2519" style="stop-color:#999999;stop-opacity:0.25"/>
    <stop offset="0.7511" style="stop-color:#3F3F3F;stop-opacity:0.25"/>
    <stop offset="0.7677" style="stop-color:#000000;stop-opacity:0.25"/>
    <stop offset="0.9755" style="stop-color:#000000;stop-opacity:0.55"/>
    <stop offset="0.9816" style="stop-color:#000000;stop-opacity:0.45"/>
    <stop offset="1" style="stop-color:#000000;stop-opacity:0.75"/>
  </linearGradient>
  <path fill="url(#SVGID_20_)" d="M36.934,44.592v79.784c0,0.412-0.337,0.749-0.748,0.749H2.872c-1.029,0-1.872-0.842-1.872-1.871&#xD;&#xA;&#x9;&#x9;V45.715c0-1.029,0.842-1.872,1.872-1.872h33.314C36.597,43.843,36.934,44.18,36.934,44.592z"/>
  <linearGradient id="SVGID_21_" gradientUnits="userSpaceOnUse" x1="232.5742" y1="84.4844" x2="239.6001" y2="84.4844">
    <stop offset="0" style="stop-color:#000000;stop-opacity:0.25"/>
    <stop offset="0.1765" style="stop-color:#000000;stop-opacity:0"/>
    <stop offset="1" style="stop-color:#000000;stop-opacity:0.15"/>
  </linearGradient>
  <path fill="url(#SVGID_21_)" d="M239.6,132.611h-5.903c-0.618,0-1.123-0.506-1.123-1.123V37.48c0-0.618,0.505-1.123,1.123-1.123&#xD;&#xA;&#x9;&#x9;h5.903c-0.618,0-1.123,0.505-1.123,1.123v94.008C238.477,132.105,238.982,132.611,239.6,132.611z"/>
  <linearGradient id="SVGID_22_" gradientUnits="userSpaceOnUse" x1="75.1143" y1="84.4844" x2="232.5742" y2="84.4844">
    <stop offset="0" style="stop-color:#000000;stop-opacity:0.25"/>
    <stop offset="0.006" style="stop-color:#000000;stop-opacity:0"/>
    <stop offset="0.9955" style="stop-color:#000000;stop-opacity:0"/>
    <stop offset="1" style="stop-color:#000000;stop-opacity:0.25"/>
  </linearGradient>
  <path fill="url(#SVGID_22_)" d="M75.114,131.862c0,0.411,0.337,0.749,0.749,0.749h155.963c0.411,0,0.748-0.338,0.748-0.749V37.105&#xD;&#xA;&#x9;&#x9;c0-0.412-0.337-0.748-0.748-0.748H75.863c-0.412,0-0.749,0.336-0.749,0.748V131.862z"/>
  <linearGradient id="SVGID_23_" gradientUnits="userSpaceOnUse" x1="1" y1="84.4844" x2="36.9336" y2="84.4844">
    <stop offset="0" style="stop-color:#000000;stop-opacity:0.25"/>
    <stop offset="7.551700e-004" style="stop-color:#000000;stop-opacity:0.2486"/>
    <stop offset="0.1342" style="stop-color:#000000;stop-opacity:0"/>
    <stop offset="0.9774" style="stop-color:#000000;stop-opacity:0.15"/>
    <stop offset="1" style="stop-color:#000000;stop-opacity:0.25"/>
  </linearGradient>
  <path fill="url(#SVGID_23_)" d="M36.934,44.592v79.784c0,0.412-0.337,0.749-0.748,0.749H2.872c-1.029,0-1.872-0.842-1.872-1.871&#xD;&#xA;&#x9;&#x9;V45.715c0-1.029,0.842-1.872,1.872-1.872h33.314C36.597,43.843,36.934,44.18,36.934,44.592z"/>
</svg>