<svg version="1.2" baseProfile="tiny" id="EdgeSVG_HWxmi" x="0px" y="0px" width="287.662px" height="133.611px" viewBox="0 0 287.662 133.611" xmlns:xlink="http://www.w3.org/1999/xlink" xmlns="http://www.w3.org/2000/svg">
  <linearGradient id="SVGID_1_" gradientUnits="userSpaceOnUse" x1="0" y1="66.8057" x2="287.6621" y2="66.8057">
    <stop offset="0" style="stop-color:#000000;stop-opacity:0.5"/>
    <stop offset="1" style="stop-color:#000000;stop-opacity:0.5"/>
  </linearGradient>
  <path fill="url(#SVGID_1_)" d="M285.165,75.209h-30.502V43.317l-2.534-3.66V37.48c0-1.17-0.953-2.123-2.123-2.123H239.6h-5.903&#xD;&#xA;&#x9;&#x9;c-0.356,0-0.687,0.096-0.981,0.251c-0.262-0.156-0.563-0.251-0.89-0.251H75.863c-0.269,0-0.521,0.066-0.749,0.175&#xD;&#xA;&#x9;&#x9;c-0.191-0.091-0.4-0.146-0.621-0.162V18.967c0-1.17-0.952-2.123-2.123-2.123h-0.123V2.123C72.247,0.952,71.294,0,70.124,0H43.735&#xD;&#xA;&#x9;&#x9;c-1.17,0-2.123,0.952-2.123,2.123v14.721h-0.123c-1.17,0-2.123,0.953-2.123,2.123v16.391h-0.561c-1.253,0-2.31,0.812-2.702,1.933&#xD;&#xA;&#x9;&#x9;c-0.287-0.145-0.605-0.234-0.948-0.234h-0.123V22.335c0-1.17-0.953-2.123-2.123-2.123H6.521c-1.17,0-2.123,0.952-2.123,2.123&#xD;&#xA;&#x9;&#x9;v14.721H4.275c-1.17,0-2.123,0.953-2.123,2.123v3.766C0.918,43.267,0,44.381,0,45.715v77.539c0,1.583,1.288,2.871,2.872,2.871&#xD;&#xA;&#x9;&#x9;h33.062v4.614c0,1.584,1.289,2.872,2.872,2.872h35.559c0.269,0,0.521-0.066,0.749-0.175c0.228,0.108,0.48,0.175,0.749,0.175&#xD;&#xA;&#x9;&#x9;h155.963c0.326,0,0.628-0.096,0.89-0.252c0.295,0.155,0.625,0.252,0.981,0.252h5.903h10.406c1.17,0,2.123-0.952,2.123-2.123v-5.92&#xD;&#xA;&#x9;&#x9;l2.534-3.66V90.016h30.502c1.377,0,2.497-1.105,2.497-2.463v-9.88C287.662,76.314,286.542,75.209,285.165,75.209z"/>
</svg>