<svg version="1.2" baseProfile="tiny" viewBox="0 0 162.0 22.853" xmlns:xlink="http://www.w3.org/1999/xlink" xmlns="http://www.w3.org/2000/svg">
<path style="fill:#ffffff;" d="M152.4501,6.815L149.3397,6.815L149.3397,3.031C149.3397,2.664,149.04,2.3639,148.6723,2.3639L133.36,2.3639L133.36,1.0L62.8106,1.0L62.8106,1.0L62.8106,2.3639L47.4968,2.3639L47.4968,2.3639C47.1307,2.3639,46.8293,2.664,46.8293,3.031L46.8293,15.3401C46.8293,15.7071,47.1307,16.0069,47.4968,16.0069L50.0467,16.0069L50.0467,17.566L146.124,17.566L146.124,16.0069L148.6723,16.0069C149.04,16.0069,149.3397,15.7071,149.3397,15.3401L149.3397,11.5561L152.4501,11.5561C152.6947,11.5561,152.894,11.357,152.894,11.112L152.894,7.2599C152.8956,7.015,152.6947,6.815,152.4501,6.815Z"/>
</svg>