<svg version="1.2" baseProfile="tiny" viewBox="0 0 42.5 50.58" xmlns:xlink="http://www.w3.org/1999/xlink" xmlns="http://www.w3.org/2000/svg">
<path style="fill:#ffffff;" d="M28.294,50.58L14.2052,50.58C13.9349,50.58,13.679,50.4718,13.4899,50.2791L0.2852,36.7798C0.1029,36.5941,0.0,36.3433,0.0,36.0812L0.0,1.0C0.0,0.4481,0.4471,0.0,1.0,0.0L41.5,0.0C42.0529,0.0,42.5,0.4481,42.5,1.0L42.5,36.0812C42.5,36.3433,42.3971,36.5941,42.2148,36.7798L29.0088,50.2791C28.8201,50.4718,28.563,50.58,28.294,50.58M14.6259,48.5801L27.8732,48.5801L40.5,35.6731L40.5,1.9999L2.0001,1.9999L2.0001,35.6731L14.6259,48.5801Z"/>
</svg>