<svg version="1.2" baseProfile="tiny" viewBox="0 0 82.025 82.001" xmlns:xlink="http://www.w3.org/1999/xlink" xmlns="http://www.w3.org/2000/svg">
<path style="fill:#ffffff;" d="M81.7814,22.9431C81.7642,22.9053,81.7502,22.8676,81.7289,22.8307C81.6387,22.6667,81.5222,22.5167,81.3721,22.3846C81.3458,22.3609,81.313,22.3436,81.2843,22.3207C81.2113,22.2649,81.1416,22.2051,81.0571,22.1567L42.0263,0.2722C41.3792,-0.091,40.5359,-0.091,39.8879,0.2722L0.8572,22.1583C0.7719,22.2059,0.7062,22.2657,0.6316,22.3223C0.6012,22.3453,0.5693,22.3617,0.543,22.3863C0.3929,22.5167,0.2748,22.6684,0.1862,22.8324C0.1649,22.8676,0.1517,22.9053,0.1337,22.9431C0.0541,23.1226,0.0,23.3096,0.0,23.5064L0.0,80.3798C0.0,81.2753,0.8613,82.001,1.9268,82.001L79.9891,82.001C81.0538,82.001,81.9167,81.2737,81.9167,80.3798L81.9167,23.5064C81.9159,23.3112,81.8618,23.1226,81.7814,22.9431M40.9584,3.5687L73.6232,21.8852L8.2919,21.8852L8.2919,21.8852L40.9584,3.5687M3.8544,78.7579L3.8544,25.1284L78.0599,25.1284L78.0599,78.7579L3.8544,78.7579L3.8544,78.7579Z"/>
</svg>