<svg version="1.2" baseProfile="tiny" viewBox="0 0 56.000 27.625" xmlns:xlink="http://www.w3.org/1999/xlink" xmlns="http://www.w3.org/2000/svg">
<path style="fill:#ffffff;" d="M52.089,14.487C42.828,14.254,31.394,18.174,28,20.725v-0.359   c-4.18-0.822-14.364-5.722-23.946-5.938c-0.834-0.019-1.559,0.267-2.155,0.851C1.303,15.859,1,16.578,1,17.412v6.207   c0,1.619,1.294,2.945,2.911,2.986c9.261,0.232,20.695-2.126,24.089-4.677v0.361c8.467,2.778,14.365,4.159,23.946,4.375   c0.835,0.02,1.559-0.266,2.155-0.85c0.596-0.582,0.898-1.3,0.898-2.134v-6.207C55,15.854,53.707,14.527,52.089,14.487z"/>
</svg>