<svg version="1.2" baseProfile="tiny" viewBox="0 0 56.000 27.625" xmlns:xlink="http://www.w3.org/1999/xlink" xmlns="http://www.w3.org/2000/svg">
<path style="fill:#ffffff;" d="M52.114,13.488c-8.335-0.216-18.346,3.15-23.114,5.492V1c0-0.552-0.447-1-1-1   s-1,0.448-1,1v18.086c-1.123-0.321-2.523-0.803-4.082-1.341c-5.093-1.758-12.068-4.165-18.94-4.319   c-1.058,0-2.019,0.393-2.778,1.136C0.415,15.329,0,16.314,0,17.412v6.207c0,2.143,1.743,3.931,3.886,3.986   c0.433,0.011,0.87,0.016,1.311,0.016c0.001,0,0.001,0,0.002,0c8.535,0,18.421-1.948,22.582-4.361c0.01,0.002,0.017,0.008,0.026,0.01   c1.227,0.241,3.082,0.954,5.276,1.639c5.157,1.61,12.068,2.563,18.84,2.716c0.008,0,0.096,0.001,0.104,0.001   c1.056,0,2.016-0.353,2.774-1.096C55.585,25.763,56,24.778,56,23.681v-6.207C56,15.329,54.257,13.541,52.114,13.488z M5.197,25.621   c-0.424,0-0.846-0.005-1.261-0.015C2.869,25.578,2,24.687,2,23.619v-6.207c0-0.563,0.195-1.027,0.598-1.42   c0.389-0.38,0.839-0.565,1.431-0.565c0.001,0,0.002,0,0.003,0c6.461,0.146,13.266,2.495,18.234,4.209   c1.902,0.657,3.479,1.201,4.734,1.525v0.24C23.72,23.447,14.088,25.621,5.197,25.621z M51.969,25.665   c-6.46-0.146-13.01-1.021-18.233-2.646c-1.922-0.598-3.479-1.201-4.735-1.524v-0.242c3.279-2.045,12.909-5.781,21.798-5.781   c0.426,0,0.849,0.005,1.267,0.016C53.132,15.513,54,16.405,54,17.474v6.207c0,0.562-0.195,1.026-0.598,1.419   c-0.389,0.381-0.839,0.565-1.376,0.565"/>
</svg>