<svg version="1.2" baseProfile="tiny" viewBox="0 0 110.0 243.665" xmlns:xlink="http://www.w3.org/1999/xlink" xmlns="http://www.w3.org/2000/svg">
<path style="fill:#ffffff;" d="M3.0074,30.6628L106.9915,30.6628L106.9915,170.836L100.3453,176.8521L100.3475,241.1601L104.4098,241.1601L104.4098,242.1616L89.4355,242.1616L89.4355,241.1601L89.4355,241.1601L92.7465,241.1601L92.7465,183.7283L58.0481,215.1294L58.0481,241.1577L61.3041,241.1577L61.3041,242.1591L48.3362,242.1591L48.3362,241.1577L48.3362,241.1577L51.4261,241.1577L51.4261,214.9271L16.643,183.2531L16.643,241.1577L20.7075,241.1577L20.7075,242.1591L5.7332,242.1591L5.7332,241.1577L5.7332,241.1577L9.3148,241.1577L9.3148,176.5791L3.0074,170.836L3.0074,30.6628M1.5026,28.5259L1.5026,30.6092L108.4963,30.6092L108.4963,28.5259L1.5026,28.5259L1.5026,28.5259Z"/>
</svg>