<svg version="1.2" baseProfile="tiny" viewBox="0 0 110.0 243.665" xmlns:xlink="http://www.w3.org/1999/xlink" xmlns="http://www.w3.org/2000/svg">
<path style="fill:#ffffff;" d="M55.4202,168.5309L53.6657,168.5309L53.6657,30.6628L55.4202,30.6628L55.4202,168.5309M57.7115,95.2535L51.3733,95.2535L51.3733,96.255L57.7115,96.255L57.7115,95.2535M57.7115,98.5649L51.3733,98.5649L51.3733,99.5664L57.7115,99.5664L57.7115,98.5649M62.9508,96.233L46.1351,96.233L46.1351,98.5893L46.1351,98.5893L62.9508,98.5893L62.9508,96.233M15.3362,99.7906L50.1699,99.7906L50.1699,94.9465L50.1699,94.9465L17.842,94.9465L17.842,94.9465L15.3362,99.7906M91.2868,94.9465L58.9589,94.9465L58.9589,99.7906L58.9589,99.7906L93.7926,99.7906L91.2868,94.9465M57.7115,159.0864L51.3733,159.0864L51.3733,160.0879L57.7115,160.0879L57.7115,159.0864M57.7115,162.3978L51.3733,162.3978L51.3733,163.4017L57.7115,163.4017L57.7115,162.3978M57.7115,167.6732L51.3733,167.6732L51.3733,168.6771L57.7115,168.6771L57.7115,167.6732M57.7115,169.9173L51.3733,169.9173L51.3733,170.9188L57.7115,170.9188L57.7115,169.9173M62.9508,160.066L46.1351,160.066L46.1351,162.4222L46.1351,162.4222L62.9508,162.4222L62.9508,160.066M15.3362,163.6259L50.1699,163.6259L50.1699,158.7819L50.1699,158.7819L17.842,158.7819L17.842,158.7819L15.3362,163.6259M91.2868,158.7819L58.9589,158.7819L58.9589,163.6259L58.9589,163.6259L93.7926,163.6259L91.2868,158.7819M75.6712,194.0377L60.7981,168.6771L52.1323,168.6771L52.1323,169.9173L59.9104,169.9442L74.8187,194.8248L75.6712,194.0377Z"/>
</svg>