<svg version="1.2" baseProfile="tiny" viewBox="0 0 110.0 243.665" xmlns:xlink="http://www.w3.org/1999/xlink" xmlns="http://www.w3.org/2000/svg">
<path style="fill:#ffffff;" d="M69.8192,28.4747L39.0588,28.4747L39.0588,26.8592L69.8192,26.8592L69.8192,28.4747M63.9232,6.9713L44.9537,6.9713L44.9537,9.5809L44.9537,9.5809L63.9232,9.5809L63.9232,6.9713M59.1822,6.1014L49.6969,6.1014L49.6969,6.9713L59.1822,6.9713L59.1822,6.1014M41.9089,9.5833L41.9089,26.8568L66.8217,26.8568L66.8217,9.5833L41.9089,9.5833L41.9089,9.5833M70.136,9.7198L70.136,26.7203L73.5658,26.7203L73.5658,9.7198L70.136,9.7198L70.136,9.7198M66.8217,12.4391L66.8217,24.2106L67.9954,24.2106L67.9954,12.4391L66.8217,12.4391L66.8217,12.4391M67.8018,12.4391L67.9943,12.4391L67.9943,24.2106C68.618,24.8587,69.3484,25.3144,70.136,25.519L70.136,10.9211C69.2615,11.1452,68.4673,11.6789,67.8018,12.4391M75.7075,12.4391L75.7075,24.2106L76.8801,24.2106L76.8801,12.4391L75.7075,12.4391L75.7075,12.4391M73.5658,10.9211L73.5658,25.519C74.3545,25.3144,75.0849,24.8611,75.7086,24.2106L75.7086,12.4391L75.9,12.4391L75.9,12.4391C75.2345,11.6789,74.4392,11.1452,73.5658,10.9211M96.9903,11.6691L95.6197,10.9211L76.8801,10.9211L76.8801,25.519L76.8801,25.519L95.6197,25.519L95.6197,25.519L96.9903,24.7734L96.9903,11.6691M103.961,12.7851L102.7037,11.6691L96.9903,11.6691L96.9903,24.4956L96.9903,24.4956L102.7048,24.4956L103.9621,23.3772L103.9621,12.7851M90.134,4.7344L81.334,4.7344L81.334,10.9211L90.134,10.9211L90.134,4.7344M91.6201,2.8704L79.849,2.8704L79.849,4.7344L79.849,4.7344L91.6201,4.7344L91.6201,4.7344L91.6201,2.8704M88.1914,1.5034L83.2777,1.5034L81.906,2.8704L89.562,2.8704L88.1914,1.5034Z"/>
</svg>