<svg version="1.2" baseProfile="tiny" viewBox="0 0 112.797 26.316" xmlns:xlink="http://www.w3.org/1999/xlink" xmlns="http://www.w3.org/2000/svg">
<path style="fill:#ffffff;" d="M9.6035,1.735C9.6035,1.735,10.4506,2.929,10.4506,6.265C10.4506,9.603,9.6035,10.799,9.6035,10.799L9.1208,10.799L9.1208,10.799L8.6391,10.799L8.6391,10.799C8.6391,10.799,7.9578,9.8161,7.8202,7.1919L7.2528,7.1919L7.2528,10.798L7.2528,10.798L2.9395,10.798L2.9395,25.3899L2.9395,25.3899L0.9227,25.3899L0.9227,5.0819L0.9227,5.0819L2.9395,5.0819L2.9395,5.0819L7.2528,5.0819L7.2528,5.3419L7.8202,5.3419L7.8202,5.3419C7.9578,2.7171,8.6391,1.735,8.6391,1.735L8.6391,1.7361L8.9899,1.7361L8.9899,1.7361L9.1208,1.7361L9.6035,1.7361L9.6035,1.7361M108.2795,1.7879L107.879,1.7879L107.879,0.924L106.4138,0.924L106.4138,1.7879L105.613,1.7879L105.613,0.924L104.1466,0.924L104.1466,1.7879L102.6678,1.7879L102.6678,10.8519L103.7473,10.8519L103.7473,20.7091L104.5143,20.7091L104.5143,24.872L107.5125,24.872L107.5125,20.7091L108.2795,20.7091L108.2795,10.8519C110.7824,10.8519,112.057,8.823,112.057,6.3201C112.057,3.8161,110.7824,1.7879,108.2795,1.7879Z"/>
</svg>