<svg version="1.2" baseProfile="tiny" id="EdgeSVG_sENCY" x="0px" y="0px" width="160.167px" height="31.328px" viewBox="0 0 160.167 31.328" xmlns:xlink="http://www.w3.org/1999/xlink" xmlns="http://www.w3.org/2000/svg">
  <linearGradient id="SVGID_2_" gradientUnits="userSpaceOnUse" x1="3.1675" y1="26.4126" x2="53.9976" y2="26.4126">
    <stop offset="0" style="stop-color:#000000;stop-opacity:0.2"/>
    <stop offset="1" style="stop-color:#000000;stop-opacity:0.25"/>
  </linearGradient>
  <path fill="url(#SVGID_2_)" d="M53.998,23.498v5.83H3.167v-5.83c4.19,2.48,13.99,4.21,25.41,4.21&#xD;&#xA;&#x9;&#x9;C40.018,27.708,49.828,25.967,53.998,23.498z"/>
  <linearGradient id="SVGID_3_" gradientUnits="userSpaceOnUse" x1="0.9976" y1="21.1831" x2="56.1675" y2="21.1831">
    <stop offset="0" style="stop-color:#000000;stop-opacity:0.2"/>
    <stop offset="0.0123" style="stop-color:#FFFFFF;stop-opacity:0.15"/>
    <stop offset="0.0859" style="stop-color:#000000;stop-opacity:0"/>
    <stop offset="0.5767" style="stop-color:#000000;stop-opacity:0.25"/>
    <stop offset="0.9755" style="stop-color:#FFFFFF;stop-opacity:0.1659"/>
    <stop offset="1" style="stop-color:#000000;stop-opacity:0.15"/>
  </linearGradient>
  <path fill="url(#SVGID_3_)" d="M56.158,14.718c-0.1,3-7.92,5.55-18.77,6.459c-2.76,0.23-5.73,0.36-8.81,0.36&#xD;&#xA;&#x9;&#x9;c-3.07,0-6.03-0.13-8.79-0.36c-10.85-0.91-18.68-3.459-18.78-6.459c-0.01-0.02-0.01-0.04-0.01-0.06c0,3.46,0,6.17,0,6.17&#xD;&#xA;&#x9;&#x9;c0,0.03,0,0.04,0.01,0.06c0.03,0.931,0.8,1.811,2.16,2.61c4.19,2.48,13.99,4.21,25.41,4.21c11.44,0,21.25-1.74,25.42-4.21&#xD;&#xA;&#x9;&#x9;c1.37-0.8,2.13-1.689,2.16-2.61c0.01-0.02,0.01-0.029,0.01-0.06c0,0,0-2.71,0-6.17C56.167,14.678,56.167,14.698,56.158,14.718z"/>
  <linearGradient id="SVGID_4_" gradientUnits="userSpaceOnUse" x1="3.1675" y1="26.4126" x2="53.9976" y2="26.4126">
    <stop offset="0" style="stop-color:#000000;stop-opacity:0.2"/>
    <stop offset="0.0123" style="stop-color:#FFFFFF;stop-opacity:0.15"/>
    <stop offset="0.0859" style="stop-color:#000000;stop-opacity:0"/>
    <stop offset="0.5767" style="stop-color:#000000;stop-opacity:0.25"/>
    <stop offset="0.9755" style="stop-color:#FFFFFF;stop-opacity:0.1659"/>
    <stop offset="1" style="stop-color:#000000;stop-opacity:0.15"/>
  </linearGradient>
  <path fill="url(#SVGID_4_)" d="M53.998,23.498v5.83H3.167v-5.83c4.19,2.48,13.99,4.21,25.41,4.21&#xD;&#xA;&#x9;&#x9;C40.018,27.708,49.828,25.967,53.998,23.498z"/>
  <linearGradient id="SVGID_5_" gradientUnits="userSpaceOnUse" x1="28.585" y1="1" x2="28.585" y2="21.543">
    <stop offset="0" style="stop-color:#FFFFFF;stop-opacity:0.2"/>
    <stop offset="1" style="stop-color:#FFFFFF;stop-opacity:0.35"/>
  </linearGradient>
  <path fill="url(#SVGID_5_)" d="M52.587,1.006L4.808,1.017C2.811,0.902,1.757,1.823,1.699,2.832L1,14.662c0,0.02,0,0.04,0.01,0.06&#xD;&#xA;&#x9;&#x9;c0.12,3.77,12.42,6.82,27.57,6.82c15.16,0,27.46-3.051,27.58-6.82c0.01-0.02,0.01-0.04,0.01-0.06L55.667,2.87&#xD;&#xA;&#x9;&#x9;C55.617,1.641,54.585,0.924,52.587,1.006z M54.161,15.338c-0.569,1.673-9.865,4.884-25.581,4.884&#xD;&#xA;&#x9;&#x9;c-15.71,0-25.002-3.211-25.578-4.932L3.734,2.268C3.879,2.2,4.202,2.11,4.743,2.141l47.892-0.01&#xD;&#xA;&#x9;&#x9;c0.517-0.021,0.84,0.035,1.003,0.086l0.533,12.847L54.161,15.338z"/>
  <linearGradient id="SVGID_6_" gradientUnits="userSpaceOnUse" x1="28.5859" y1="2.126" x2="28.5859" y2="20.2222">
    <stop offset="0" style="stop-color:#000000;stop-opacity:0.2"/>
    <stop offset="1" style="stop-color:#000000;stop-opacity:0.25"/>
  </linearGradient>
  <path fill="url(#SVGID_6_)" d="M53.637,2.217c-0.163-0.051-0.486-0.107-1.003-0.086L4.743,2.141C4.202,2.11,3.879,2.2,3.734,2.268&#xD;&#xA;&#x9;&#x9;L3.002,15.291c0.576,1.721,9.868,4.932,25.578,4.932c15.716,0,25.012-3.211,25.581-4.885l0.009-0.273L53.637,2.217z M53.169,15.076&#xD;&#xA;&#x9;&#x9;c-0.981,1.168-9.648,4.146-24.589,4.146c-14.877,0-23.486-2.954-24.578-4.198L4.686,3.139l47.99-0.009L53.169,15.076z"/>
  <linearGradient id="SVGID_7_" gradientUnits="userSpaceOnUse" x1="28.585" y1="14.6577" x2="28.585" y2="27.708">
    <stop offset="0.1595" style="stop-color:#000000;stop-opacity:0.15"/>
    <stop offset="0.5153" style="stop-color:#000000;stop-opacity:0.05"/>
    <stop offset="0.6747" style="stop-color:#5D5D5D;stop-opacity:0.0664"/>
    <stop offset="0.834" style="stop-color:#B4B4B4;stop-opacity:0.0829"/>
    <stop offset="0.9459" style="stop-color:#EAEAEA;stop-opacity:0.0944"/>
    <stop offset="1" style="stop-color:#FFFFFF;stop-opacity:0.1"/>
  </linearGradient>
  <path fill="url(#SVGID_7_)" d="M56.16,14.718c-0.1,3-7.92,5.55-18.77,6.459c-2.76,0.23-5.73,0.36-8.81,0.36&#xD;&#xA;&#x9;&#x9;c-3.07,0-6.03-0.13-8.79-0.36c-10.85-0.91-18.68-3.459-18.78-6.459C1,14.698,1,14.678,1,14.658c0,3.46,0,6.17,0,6.17&#xD;&#xA;&#x9;&#x9;c0,0.03,0,0.04,0.01,0.06c0.03,0.931,0.8,1.811,2.16,2.61c4.19,2.48,13.99,4.21,25.41,4.21c11.44,0,21.25-1.74,25.42-4.21&#xD;&#xA;&#x9;&#x9;c1.37-0.8,2.13-1.689,2.16-2.61c0.01-0.02,0.01-0.029,0.01-0.06c0,0,0-2.71,0-6.17C56.17,14.678,56.17,14.698,56.16,14.718z"/>
  <linearGradient id="SVGID_8_" gradientUnits="userSpaceOnUse" x1="28.585" y1="19.1772" x2="28.585" y2="27.7031">
    <stop offset="0" style="stop-color:#000000;stop-opacity:0"/>
    <stop offset="1" style="stop-color:#000000;stop-opacity:0.35"/>
  </linearGradient>
  <path fill="url(#SVGID_8_)" d="M56.16,19.238c-0.1,3-7.92,5.55-18.77,6.459c-2.76,0.23-5.73,0.361-8.81,0.361&#xD;&#xA;&#x9;&#x9;c-3.07,0-6.03-0.131-8.79-0.361C8.94,24.788,1.11,22.238,1.01,19.238C1,19.218,1,19.198,1,19.177c0,3.461,0,1.645,0,1.645&#xD;&#xA;&#x9;&#x9;c0,0.031,0,0.041,0.01,0.061c0.03,0.93,0.8,1.811,2.16,2.609c4.19,2.48,13.99,4.211,25.41,4.211c11.44,0,21.25-1.74,25.42-4.211&#xD;&#xA;&#x9;&#x9;c1.371-0.799,2.13-1.689,2.16-2.609c0.01-0.02,0.01-0.029,0.01-0.061c0,0,0,1.816,0-1.645&#xD;&#xA;&#x9;&#x9;C56.169,19.198,56.169,19.218,56.16,19.238z"/>
  <rect x="4.999" y="29.328" fill="#333333" width="47.167" height="1"/>
  <linearGradient id="SVGID_9_" gradientUnits="userSpaceOnUse" x1="3.1675" y1="26.4126" x2="54" y2="26.4126">
    <stop offset="0" style="stop-color:#000000;stop-opacity:0.45"/>
    <stop offset="1" style="stop-color:#000000;stop-opacity:0.45"/>
  </linearGradient>
  <path fill="url(#SVGID_9_)" d="M28.578,27.708c-11.418,0-21.217-1.729-25.408-4.209l-0.002,2.257c0,0,0.666,1.906,6.999,3.572&#xD;&#xA;&#x9;&#x9;h36.167c0,0,5.167-0.813,7.665-3.572L54,23.498h-0.002C49.828,25.967,40.018,27.708,28.578,27.708z"/>
  <linearGradient id="SVGID_10_" gradientUnits="userSpaceOnUse" x1="4.999" y1="29.8276" x2="52.1655" y2="29.8276">
    <stop offset="0" style="stop-color:#000000;stop-opacity:0.45"/>
    <stop offset="1" style="stop-color:#000000;stop-opacity:0.45"/>
  </linearGradient>
  <polygon fill="url(#SVGID_10_)" points="4.999,29.328 4.999,29.828 10.417,29.828 10.751,30.328 45.751,30.328 46.251,29.828 &#xD;&#xA;&#x9;&#x9;52.166,29.828 52.166,29.328 &#x9;"/>
  <linearGradient id="SVGID_11_" gradientUnits="userSpaceOnUse" x1="19.7505" y1="4.8276" x2="19.7505" y2="13.7026">
    <stop offset="0" style="stop-color:#000000;stop-opacity:0.2"/>
    <stop offset="0.2454" style="stop-color:#000000;stop-opacity:0.05"/>
    <stop offset="0.3278" style="stop-color:#141414;stop-opacity:0.0718"/>
    <stop offset="0.4969" style="stop-color:#484848;stop-opacity:0.1167"/>
    <stop offset="0.7384" style="stop-color:#9D9D9D;stop-opacity:0.1807"/>
    <stop offset="1" style="stop-color:#FFFFFF;stop-opacity:0.25"/>
  </linearGradient>
  <path fill="url(#SVGID_11_)" d="M6.5,4.828v8.875H33V4.828H6.5z M32.174,12.995H7.167v-7.5h25.007V12.995z"/>
  <rect x="7.247" y="5.515" fill="#666666" width="25.007" height="7.5"/>
  <linearGradient id="SVGID_12_" gradientUnits="userSpaceOnUse" x1="19.7505" y1="13.0151" x2="19.7505" y2="5.5151">
    <stop offset="0.2209" style="stop-color:#000000;stop-opacity:0.2"/>
    <stop offset="0.3042" style="stop-color:#050505;stop-opacity:0.1893"/>
    <stop offset="0.4006" style="stop-color:#131313;stop-opacity:0.1769"/>
    <stop offset="0.5035" style="stop-color:#2A2A2A;stop-opacity:0.1637"/>
    <stop offset="0.6109" style="stop-color:#4B4B4B;stop-opacity:0.1499"/>
    <stop offset="0.7219" style="stop-color:#747474;stop-opacity:0.1357"/>
    <stop offset="0.8359" style="stop-color:#A7A7A7;stop-opacity:0.1211"/>
    <stop offset="0.9502" style="stop-color:#E3E3E3;stop-opacity:0.1064"/>
    <stop offset="1" style="stop-color:#FFFFFF;stop-opacity:0.1"/>
  </linearGradient>
  <rect x="7.247" y="5.515" fill="url(#SVGID_12_)" width="25.007" height="7.5"/>
  <path d="M32.404,13.165H7.097v-7.8h25.307V13.165z M7.397,12.865h24.707v-7.2H7.397V12.865z"/>
  <linearGradient id="SVGID_13_" gradientUnits="userSpaceOnUse" x1="19.7529" y1="5.665" x2="19.7529" y2="12.1245">
    <stop offset="0" style="stop-color:#FFFFFF;stop-opacity:0.2"/>
    <stop offset="1" style="stop-color:#FFFFFF;stop-opacity:0.1"/>
  </linearGradient>
  <path fill="url(#SVGID_13_)" d="M7.402,6.343c11.254,0,24.702,5.781,24.702,5.781V5.665L7.402,5.697V6.343z"/>
  <linearGradient id="SVGID_14_" gradientUnits="userSpaceOnUse" x1="20.877" y1="17.3975" x2="20.877" y2="14.6177">
    <stop offset="0" style="stop-color:#000000;stop-opacity:0.6"/>
    <stop offset="0.9816" style="stop-color:#000000;stop-opacity:0.4"/>
  </linearGradient>
  <path fill="url(#SVGID_14_)" d="M28.828,17.397c-14.349,0-21.962-2.462-22.037-2.487c-0.079-0.026-0.122-0.111-0.096-0.189&#xD;&#xA;&#x9;&#x9;s0.111-0.121,0.189-0.096c0.075,0.025,7.649,2.473,21.943,2.473c2.129,0,4.175-0.067,6.08-0.199&#xD;&#xA;&#x9;&#x9;c0.083-0.003,0.154,0.057,0.16,0.139c0.006,0.083-0.056,0.154-0.139,0.16C33.017,17.33,30.964,17.397,28.828,17.397z"/>
  <linearGradient id="SVGID_15_" gradientUnits="userSpaceOnUse" x1="42.8774" y1="17.1978" x2="42.8774" y2="4.2578">
    <stop offset="0" style="stop-color:#000000;stop-opacity:0.6"/>
    <stop offset="0.9816" style="stop-color:#000000;stop-opacity:0.4"/>
  </linearGradient>
  <path fill="url(#SVGID_15_)" d="M50.867,11.261L50.867,11.261l-0.11-2.56l0,0c0,0,0,0,0,0l-0.11-2.37l0,0l-0.08-1.929&#xD;&#xA;&#x9;&#x9;c-0.003-0.08-0.069-0.144-0.15-0.144h-2.42h-4.12h-4.46h-4.5c-0.083,0-0.15,0.067-0.15,0.15v2.75v3.39v2.97v3.53&#xD;&#xA;&#x9;&#x9;c0,0.042,0.017,0.081,0.047,0.109c0.028,0.026,0.064,0.041,0.103,0.041c0.003,0,0.007,0,0.01,0&#xD;&#xA;&#x9;&#x9;c1.498-0.102,3.014-0.247,4.508-0.431c1.558-0.194,3.081-0.436,4.525-0.721c0.001,0,0.003,0,0.004,0&#xD;&#xA;&#x9;&#x9;c1.622-0.314,3.124-0.675,4.462-1.073c0.001,0,0.001,0,0.002,0c1.62-0.477,2.432-0.822,2.466-0.836&#xD;&#xA;&#x9;&#x9;c0.057-0.025,0.094-0.083,0.091-0.145L50.867,11.261z M50.56,11.155c-0.064,0.017-0.158,0.041-0.273,0.07&#xD;&#xA;&#x9;&#x9;c-0.013,0.003-0.03,0.007-0.043,0.011c-0.103,0.026-0.229,0.057-0.367,0.09c-0.032,0.008-0.063,0.015-0.096,0.023&#xD;&#xA;&#x9;&#x9;c-0.16,0.038-0.342,0.081-0.542,0.126c-0.046,0.01-0.099,0.022-0.146,0.033c-0.156,0.035-0.328,0.072-0.505,0.11&#xD;&#xA;&#x9;&#x9;c-0.054,0.012-0.109,0.023-0.166,0.035l-0.088-2.331c0.052-0.009,0.092-0.017,0.142-0.026c0.173-0.032,0.337-0.063,0.491-0.092&#xD;&#xA;&#x9;&#x9;c0.065-0.012,0.129-0.024,0.19-0.036c0.187-0.037,0.361-0.071,0.515-0.103c0.03-0.006,0.053-0.011,0.082-0.017&#xD;&#xA;&#x9;&#x9;c0.134-0.027,0.252-0.053,0.357-0.075c0.031-0.006,0.057-0.012,0.085-0.019c0.108-0.023,0.203-0.044,0.271-0.06l0.097,2.259&#xD;&#xA;&#x9;&#x9;C50.562,11.154,50.561,11.154,50.56,11.155z M47.208,11.896c-0.334,0.063-0.678,0.126-1.03,0.188&#xD;&#xA;&#x9;&#x9;c-0.024,0.004-0.049,0.008-0.073,0.013c-0.332,0.058-0.669,0.116-1.013,0.172c-0.118,0.02-0.24,0.038-0.359,0.057&#xD;&#xA;&#x9;&#x9;c-0.221,0.036-0.442,0.071-0.666,0.105l-0.009-2.462c0.032-0.004,0.063-0.01,0.096-0.014c1.26-0.163,2.494-0.349,3.747-0.561&#xD;&#xA;&#x9;&#x9;c0.044-0.007,0.088-0.012,0.132-0.02l0.089,2.34c-0.175,0.036-0.359,0.072-0.542,0.107C47.456,11.847,47.336,11.871,47.208,11.896z&#xD;&#xA;&#x9;&#x9; M42.696,12.631c-0.38,0.052-0.752,0.101-1.118,0.146c-0.005,0-0.011,0.001-0.016,0.002c-0.35,0.043-0.694,0.084-1.036,0.122&#xD;&#xA;&#x9;&#x9;c-0.137,0.015-0.272,0.029-0.409,0.043c-0.183,0.02-0.367,0.039-0.55,0.057v-2.574c0.044-0.003,0.088-0.01,0.133-0.013&#xD;&#xA;&#x9;&#x9;c1.302-0.099,2.608-0.23,3.895-0.39c0.054-0.006,0.11-0.009,0.164-0.016l0.009,2.47c-0.29,0.043-0.571,0.083-0.85,0.122&#xD;&#xA;&#x9;&#x9;C42.845,12.61,42.768,12.621,42.696,12.631z M35.232,13.346c-0.055,0.003-0.11,0.008-0.165,0.011v-2.664&#xD;&#xA;&#x9;&#x9;c0.72-0.023,1.435-0.056,2.141-0.097c0.005,0,0.01-0.001,0.015-0.001c0.691-0.04,1.375-0.088,2.044-0.144v2.579&#xD;&#xA;&#x9;&#x9;c-0.051,0.005-0.104,0.009-0.156,0.014C37.84,13.167,36.538,13.269,35.232,13.346z M35.989,7.333&#xD;&#xA;&#x9;&#x9;c0.084,0.001,0.172,0.001,0.257,0.002c0.184,0.001,0.365,0.004,0.553,0.004c0.056,0,0.115-0.001,0.172-0.002&#xD;&#xA;&#x9;&#x9;c0.261,0,0.527-0.004,0.795-0.008c0.125-0.002,0.246-0.002,0.372-0.005c0.373-0.007,0.75-0.018,1.129-0.032v2.854&#xD;&#xA;&#x9;&#x9;c-0.681,0.057-1.373,0.108-2.076,0.148c-0.007,0-0.014,0-0.021,0.001c-0.693,0.04-1.396,0.07-2.104,0.094V7.313&#xD;&#xA;&#x9;&#x9;c0.093,0.003,0.193,0.004,0.288,0.006C35.564,7.325,35.772,7.33,35.989,7.333z M43.733,5.846l0.004,0.93&#xD;&#xA;&#x9;&#x9;c-0.277,0.018-0.56,0.035-0.853,0.052c-0.02,0.001-0.038,0.002-0.057,0.004c-0.344,0.021-0.698,0.04-1.059,0.059&#xD;&#xA;&#x9;&#x9;c-0.014,0.001-0.027,0.001-0.042,0.002c-0.364,0.019-0.734,0.037-1.108,0.052c-0.124,0.005-0.249,0.009-0.373,0.014&#xD;&#xA;&#x9;&#x9;c-0.226,0.008-0.452,0.017-0.679,0.023V4.558h4.161L43.733,5.846z M47.866,4.908l0.057,1.533c-0.211,0.02-0.431,0.04-0.657,0.06&#xD;&#xA;&#x9;&#x9;c-0.058,0.005-0.11,0.01-0.169,0.016c-0.314,0.027-0.641,0.055-0.978,0.083c-0.01,0.001-0.02,0.001-0.03,0.002&#xD;&#xA;&#x9;&#x9;C45.75,6.629,45.4,6.657,45.046,6.684c-0.16,0.012-0.324,0.023-0.486,0.035c-0.174,0.013-0.347,0.025-0.522,0.038l-0.005-1.249&#xD;&#xA;&#x9;&#x9;l-0.004-0.95h3.825L47.866,4.908z M48.92,6.651c0.022-0.002,0.044-0.004,0.066-0.006c0.211-0.021,0.404-0.039,0.576-0.057&#xD;&#xA;&#x9;&#x9;c0.008-0.001,0.014-0.001,0.022-0.002c0.158-0.016,0.294-0.03,0.415-0.043c0.024-0.002,0.046-0.005,0.069-0.007&#xD;&#xA;&#x9;&#x9;c0.118-0.013,0.215-0.023,0.287-0.031l0.097,2.085c-0.064,0.015-0.159,0.036-0.274,0.062c-0.017,0.004-0.038,0.008-0.056,0.012&#xD;&#xA;&#x9;&#x9;c-0.096,0.021-0.212,0.045-0.338,0.072c-0.041,0.008-0.08,0.017-0.124,0.026c-0.159,0.033-0.337,0.068-0.536,0.107&#xD;&#xA;&#x9;&#x9;c-0.034,0.006-0.072,0.014-0.107,0.02c-0.191,0.037-0.399,0.076-0.623,0.117c-0.025,0.004-0.048,0.009-0.074,0.013L48.25,7.161&#xD;&#xA;&#x9;&#x9;l-0.017-0.447c0.015-0.001,0.026-0.002,0.041-0.004C48.504,6.69,48.72,6.67,48.92,6.651z M44.206,9.645&#xD;&#xA;&#x9;&#x9;c-0.05,0.006-0.099,0.014-0.149,0.021l-0.018-2.608c0.325-0.022,0.648-0.046,0.968-0.07c0.006,0,0.013-0.001,0.019-0.001&#xD;&#xA;&#x9;&#x9;c0.726-0.054,1.427-0.111,2.077-0.168c0.102-0.009,0.195-0.018,0.295-0.027c0.181-0.017,0.366-0.033,0.537-0.049l0.054,1.423&#xD;&#xA;&#x9;&#x9;l0.035,0.905c-0.047,0.008-0.092,0.015-0.139,0.022C46.652,9.302,45.442,9.484,44.206,9.645z M39.692,10.113&#xD;&#xA;&#x9;&#x9;c-0.042,0.003-0.083,0.008-0.125,0.011V7.284c0.289-0.008,0.577-0.02,0.864-0.031c0.06-0.002,0.12-0.004,0.179-0.006&#xD;&#xA;&#x9;&#x9;c0.762-0.031,1.507-0.072,2.215-0.114c0.228-0.013,0.443-0.027,0.662-0.041c0.083-0.005,0.17-0.01,0.251-0.015l0.018,2.626&#xD;&#xA;&#x9;&#x9;c-0.049,0.006-0.099,0.011-0.148,0.017C42.316,9.881,41.001,10.014,39.692,10.113z M50.273,4.558l0.068,1.646&#xD;&#xA;&#x9;&#x9;c-0.003,0-0.006,0-0.009,0.001c-0.064,0.007-0.155,0.017-0.258,0.028c-0.035,0.003-0.079,0.008-0.119,0.012&#xD;&#xA;&#x9;&#x9;c-0.08,0.009-0.171,0.018-0.267,0.028c-0.059,0.006-0.116,0.012-0.18,0.018c-0.151,0.015-0.316,0.032-0.497,0.049&#xD;&#xA;&#x9;&#x9;c-0.046,0.004-0.097,0.009-0.145,0.014c-0.2,0.019-0.41,0.039-0.639,0.059c-0.002,0-0.004,0-0.007,0l-0.01-0.261l-0.059-1.596&#xD;&#xA;&#x9;&#x9;H50.273z M39.268,4.558v2.435c-0.295,0.011-0.588,0.02-0.879,0.026c-0.057,0.001-0.115,0.004-0.172,0.005&#xD;&#xA;&#x9;&#x9;c-0.773,0.017-1.526,0.02-2.238,0.01c-0.04,0-0.076-0.002-0.116-0.002c-0.272-0.004-0.537-0.011-0.795-0.02V4.558H39.268z&#xD;&#xA;&#x9;&#x9; M35.067,13.659c0.037-0.002,0.074-0.006,0.111-0.009c1.332-0.078,2.659-0.181,3.958-0.307c0.043-0.004,0.089-0.006,0.132-0.01&#xD;&#xA;&#x9;&#x9;v3.152c-1.393,0.169-2.804,0.304-4.2,0.402V13.659z M39.567,16.448v-3.144c0.196-0.019,0.393-0.041,0.59-0.062&#xD;&#xA;&#x9;&#x9;c0.132-0.014,0.264-0.027,0.396-0.042c0.334-0.037,0.67-0.077,1.011-0.119c0.092-0.011,0.188-0.024,0.281-0.036&#xD;&#xA;&#x9;&#x9;c0.282-0.036,0.565-0.072,0.856-0.112c0.144-0.02,0.295-0.042,0.441-0.063c0.208-0.029,0.411-0.057,0.625-0.089l0.018,2.993&#xD;&#xA;&#x9;&#x9;C42.436,16.038,41.018,16.264,39.567,16.448z M44.086,15.716l-0.018-2.98c0.166-0.025,0.328-0.052,0.493-0.078&#xD;&#xA;&#x9;&#x9;c0.191-0.031,0.385-0.061,0.573-0.092c0.366-0.06,0.725-0.121,1.077-0.183c0.067-0.012,0.129-0.024,0.196-0.036&#xD;&#xA;&#x9;&#x9;c0.289-0.052,0.574-0.104,0.849-0.156c0.101-0.019,0.195-0.038,0.294-0.057c0.196-0.038,0.396-0.076,0.583-0.114l0.1,2.697&#xD;&#xA;&#x9;&#x9;C46.981,15.085,45.587,15.42,44.086,15.716z M48.53,14.629l-0.046-1.245l-0.052-1.425c0.054-0.011,0.096-0.021,0.148-0.032&#xD;&#xA;&#x9;&#x9;c0.174-0.037,0.339-0.073,0.494-0.107c0.063-0.014,0.124-0.027,0.184-0.041c0.19-0.043,0.368-0.083,0.523-0.121&#xD;&#xA;&#x9;&#x9;c0.021-0.005,0.037-0.009,0.057-0.014c0.148-0.035,0.275-0.066,0.389-0.094c0.023-0.006,0.043-0.011,0.065-0.016&#xD;&#xA;&#x9;&#x9;c0.114-0.029,0.212-0.054,0.284-0.073l0.107,2.438C50.436,13.998,49.712,14.274,48.53,14.629z"/>
  <linearGradient id="SVGID_16_" gradientUnits="userSpaceOnUse" x1="42.8672" y1="17.064" x2="42.8672" y2="4.4258">
    <stop offset="0" style="stop-color:#000000;stop-opacity:0.2"/>
    <stop offset="0.105" style="stop-color:#050505;stop-opacity:0.1893"/>
    <stop offset="0.2264" style="stop-color:#131313;stop-opacity:0.1769"/>
    <stop offset="0.3561" style="stop-color:#2A2A2A;stop-opacity:0.1637"/>
    <stop offset="0.4914" style="stop-color:#4B4B4B;stop-opacity:0.1499"/>
    <stop offset="0.6313" style="stop-color:#747474;stop-opacity:0.1357"/>
    <stop offset="0.7749" style="stop-color:#A7A7A7;stop-opacity:0.1211"/>
    <stop offset="0.9188" style="stop-color:#E3E3E3;stop-opacity:0.1064"/>
    <stop offset="0.9816" style="stop-color:#FFFFFF;stop-opacity:0.1"/>
  </linearGradient>
  <path fill="url(#SVGID_16_)" d="M34.933,4.428l-0.005,12.636c0,0,10.376-0.685,15.879-3.132l-0.389-9.506L34.933,4.428z"/>
  <linearGradient id="SVGID_17_" gradientUnits="userSpaceOnUse" x1="60.9917" y1="20.2026" x2="157.3433" y2="20.2026">
    <stop offset="0" style="stop-color:#000000;stop-opacity:0.1"/>
    <stop offset="1" style="stop-color:#000000;stop-opacity:0.15"/>
  </linearGradient>
  <rect x="60.992" y="18.203" fill="url(#SVGID_17_)" width="96.352" height="4"/>
  <linearGradient id="SVGID_18_" gradientUnits="userSpaceOnUse" x1="60.9917" y1="20.2026" x2="157.3433" y2="20.2026">
    <stop offset="0" style="stop-color:#000000;stop-opacity:0.2"/>
    <stop offset="0.0123" style="stop-color:#FFFFFF;stop-opacity:0.15"/>
    <stop offset="0.0859" style="stop-color:#000000;stop-opacity:0"/>
    <stop offset="0.5767" style="stop-color:#000000;stop-opacity:0.25"/>
    <stop offset="0.9755" style="stop-color:#FFFFFF;stop-opacity:0.1659"/>
    <stop offset="1" style="stop-color:#000000;stop-opacity:0.15"/>
  </linearGradient>
  <rect x="60.992" y="18.203" fill="url(#SVGID_18_)" width="96.352" height="4"/>
  <linearGradient id="SVGID_19_" gradientUnits="userSpaceOnUse" x1="59.1675" y1="13.8159" x2="159.1675" y2="13.8159">
    <stop offset="0" style="stop-color:#000000;stop-opacity:0.2"/>
    <stop offset="0.0123" style="stop-color:#FFFFFF;stop-opacity:0.15"/>
    <stop offset="0.0859" style="stop-color:#000000;stop-opacity:0"/>
    <stop offset="0.5767" style="stop-color:#000000;stop-opacity:0.25"/>
    <stop offset="0.9755" style="stop-color:#FFFFFF;stop-opacity:0.1659"/>
    <stop offset="1" style="stop-color:#000000;stop-opacity:0.15"/>
  </linearGradient>
  <path fill="url(#SVGID_19_)" d="M159.167,18.203h-100c0,0,0-6.148,0-7.148s0.911-1.625,1.824-1.625s95.169,0,96.352,0&#xD;&#xA;&#x9;&#x9;s1.824,0.624,1.824,1.75S159.167,18.203,159.167,18.203z"/>
  <path fill="#333333" d="M70.384,29.328c0,0.55-0.487,1-1.081,1h-9.054c-0.595,0-1.081-0.45-1.081-1v-1.625c0-0.55,0.486-1,1.081-1&#xD;&#xA;&#x9;&#x9;h9.054c0.594,0,1.081,0.45,1.081,1V29.328z"/>
  <path fill="#333333" d="M159.167,29.328c0,0.55-0.487,1-1.081,1h-9.054c-0.595,0-1.081-0.45-1.081-1v-1.625c0-0.55,0.486-1,1.081-1&#xD;&#xA;&#x9;&#x9;h9.054c0.594,0,1.081,0.45,1.081,1V29.328z"/>
  <g>
    <linearGradient id="SVGID_20_" gradientUnits="userSpaceOnUse" x1="59.1675" y1="28.5151" x2="70.3838" y2="28.5151">
      <stop offset="0" style="stop-color:#000000;stop-opacity:0.2"/>
      <stop offset="0.5" style="stop-color:#FFFFFF;stop-opacity:0.15"/>
      <stop offset="1" style="stop-color:#000000;stop-opacity:0.25"/>
    </linearGradient>
    <path fill="url(#SVGID_20_)" d="M70.384,29.328c0,0.55-0.487,1-1.081,1h-9.054c-0.595,0-1.081-0.45-1.081-1v-1.625&#xD;&#xA;&#x9;&#x9;&#x9;c0-0.55,0.486-1,1.081-1h9.054c0.594,0,1.081,0.45,1.081,1V29.328z"/>
    <linearGradient id="SVGID_21_" gradientUnits="userSpaceOnUse" x1="147.9517" y1="28.5151" x2="159.1675" y2="28.5151">
      <stop offset="0" style="stop-color:#000000;stop-opacity:0.2"/>
      <stop offset="0.5" style="stop-color:#FFFFFF;stop-opacity:0.15"/>
      <stop offset="1" style="stop-color:#000000;stop-opacity:0.25"/>
    </linearGradient>
    <path fill="url(#SVGID_21_)" d="M159.167,29.328c0,0.55-0.487,1-1.081,1h-9.054c-0.595,0-1.081-0.45-1.081-1v-1.625&#xD;&#xA;&#x9;&#x9;&#x9;c0-0.55,0.486-1,1.081-1h9.054c0.594,0,1.081,0.45,1.081,1V29.328z"/>
  </g>
  <g>
    <linearGradient id="SVGID_22_" gradientUnits="userSpaceOnUse" x1="63.3569" y1="24.4526" x2="66.1943" y2="24.4526">
      <stop offset="0" style="stop-color:#000000;stop-opacity:0.15"/>
      <stop offset="0.2454" style="stop-color:#000000;stop-opacity:0.2"/>
      <stop offset="0.5" style="stop-color:#FFFFFF;stop-opacity:0.15"/>
      <stop offset="0.7239" style="stop-color:#000000;stop-opacity:0.25"/>
      <stop offset="1" style="stop-color:#000000;stop-opacity:0.15"/>
    </linearGradient>
    <rect x="63.357" y="22.203" fill="url(#SVGID_22_)" width="2.837" height="4.5"/>
    <linearGradient id="SVGID_23_" gradientUnits="userSpaceOnUse" x1="152.1401" y1="24.4526" x2="154.979" y2="24.4526">
      <stop offset="0" style="stop-color:#000000;stop-opacity:0.15"/>
      <stop offset="0.2454" style="stop-color:#000000;stop-opacity:0.2"/>
      <stop offset="0.5" style="stop-color:#FFFFFF;stop-opacity:0.15"/>
      <stop offset="0.7239" style="stop-color:#000000;stop-opacity:0.25"/>
      <stop offset="1" style="stop-color:#000000;stop-opacity:0.15"/>
    </linearGradient>
    <rect x="152.14" y="22.203" fill="url(#SVGID_23_)" width="2.839" height="4.5"/>
  </g>
  <g>
    <linearGradient id="SVGID_24_" gradientUnits="userSpaceOnUse" x1="64.7754" y1="26.7026" x2="64.7754" y2="30.3276">
      <stop offset="0.0982" style="stop-color:#FFFFFF;stop-opacity:0.25"/>
      <stop offset="0.2883" style="stop-color:#FFFFFF;stop-opacity:0"/>
      <stop offset="0.638" style="stop-color:#000000;stop-opacity:0"/>
      <stop offset="0.8282" style="stop-color:#000000;stop-opacity:0.45"/>
    </linearGradient>
    <path fill="url(#SVGID_24_)" d="M70.384,29.328c0,0.55-0.487,1-1.081,1h-9.054c-0.595,0-1.081-0.45-1.081-1v-1.625&#xD;&#xA;&#x9;&#x9;&#x9;c0-0.55,0.486-1,1.081-1h9.054c0.594,0,1.081,0.45,1.081,1V29.328z"/>
    <linearGradient id="SVGID_25_" gradientUnits="userSpaceOnUse" x1="153.5601" y1="26.7026" x2="153.5601" y2="30.3276">
      <stop offset="0.0982" style="stop-color:#FFFFFF;stop-opacity:0.25"/>
      <stop offset="0.2883" style="stop-color:#FFFFFF;stop-opacity:0"/>
      <stop offset="0.638" style="stop-color:#000000;stop-opacity:0"/>
      <stop offset="0.8282" style="stop-color:#000000;stop-opacity:0.45"/>
    </linearGradient>
    <path fill="url(#SVGID_25_)" d="M159.167,29.328c0,0.55-0.487,1-1.081,1h-9.054c-0.595,0-1.081-0.45-1.081-1v-1.625&#xD;&#xA;&#x9;&#x9;&#x9;c0-0.55,0.486-1,1.081-1h9.054c0.594,0,1.081,0.45,1.081,1V29.328z"/>
  </g>
  <linearGradient id="SVGID_26_" gradientUnits="userSpaceOnUse" x1="109.167" y1="9.4292" x2="109.167" y2="18.2026">
    <stop offset="0.0307" style="stop-color:#FFFFFF;stop-opacity:0.3"/>
    <stop offset="0.092" style="stop-color:#FFFFFF;stop-opacity:0"/>
    <stop offset="0.3865" style="stop-color:#000000;stop-opacity:0"/>
    <stop offset="0.8712" style="stop-color:#000000;stop-opacity:0.15"/>
    <stop offset="0.9975" style="stop-color:#000000;stop-opacity:0.0519"/>
    <stop offset="1" style="stop-color:#000000;stop-opacity:0.05"/>
  </linearGradient>
  <path fill="url(#SVGID_26_)" d="M159.167,18.203h-100c0,0,0-6.148,0-7.148s0.911-1.625,1.824-1.625s95.169,0,96.352,0&#xD;&#xA;&#x9;&#x9;s1.824,0.624,1.824,1.75S159.167,18.203,159.167,18.203z"/>
  <g>
    <linearGradient id="SVGID_27_" gradientUnits="userSpaceOnUse" x1="60.9917" y1="19.0151" x2="157.3433" y2="19.0151">
      <stop offset="0" style="stop-color:#000000;stop-opacity:0.45"/>
      <stop offset="1" style="stop-color:#000000;stop-opacity:0.45"/>
    </linearGradient>
    <path fill="url(#SVGID_27_)" d="M60.992,19.828c0,0,0.102-0.625,1.317-0.625c1.216,0,92.703,0,93.514,0s1.521,0.313,1.521,0.313&#xD;&#xA;&#x9;&#x9;&#x9;v-1.313H60.992V19.828z"/>
    <linearGradient id="SVGID_28_" gradientUnits="userSpaceOnUse" x1="63.3569" y1="22.8901" x2="66.1943" y2="22.8901">
      <stop offset="0" style="stop-color:#000000;stop-opacity:0.45"/>
      <stop offset="1" style="stop-color:#000000;stop-opacity:0.45"/>
    </linearGradient>
    <path fill="url(#SVGID_28_)" d="M63.357,22.203v1.375c0,0,0.642-0.688,1.418-0.688c0.777,0,1.419,0.688,1.419,0.688v-1.375H63.357&#xD;&#xA;&#x9;&#x9;&#x9;z"/>
    <linearGradient id="SVGID_29_" gradientUnits="userSpaceOnUse" x1="152.1401" y1="22.8901" x2="154.979" y2="22.8901">
      <stop offset="0" style="stop-color:#000000;stop-opacity:0.45"/>
      <stop offset="1" style="stop-color:#000000;stop-opacity:0.45"/>
    </linearGradient>
    <path fill="url(#SVGID_29_)" d="M152.14,22.203v1.375c0,0,0.642-0.688,1.419-0.688s1.42,0.688,1.42,0.688v-1.375H152.14z"/>
  </g>
</svg>