<svg version="1.2" baseProfile="tiny" id="EdgeSVG_sENCY" x="0px" y="0px" width="160.167px" height="31.328px" viewBox="0 0 160.167 31.328" xmlns:xlink="http://www.w3.org/1999/xlink" xmlns="http://www.w3.org/2000/svg">
  <linearGradient id="SVGID_1_" gradientUnits="userSpaceOnUse" x1="0" y1="15.6636" x2="160.1675" y2="15.6636">
    <stop offset="0" style="stop-color:#000000;stop-opacity:0.5"/>
    <stop offset="1" style="stop-color:#000000;stop-opacity:0.5"/>
  </linearGradient>
  <path fill="url(#SVGID_1_)" d="M149.033,31.328c-1.147,0-2.081-0.897-2.081-2v-1.625c0-1.103,0.934-2,2.081-2h2.107v-2.5H67.194&#xD;&#xA;&#x9;&#x9;v2.5h2.108c1.147,0,2.081,0.897,2.081,2v1.625c0,1.103-0.934,2-2.081,2h-9.054c-1.147,0-2.081-0.897-2.081-2v-1.625&#xD;&#xA;&#x9;&#x9;c0-1.103,0.934-2,2.081-2h2.108v-2.5h-2.365v-4h-1.824v-8.148c0-1.643,1.436-2.625,2.824-2.625h96.352&#xD;&#xA;&#x9;&#x9;c1.742,0,2.824,1.054,2.824,2.75v8.024h-1.824v4h-2.364v2.5h2.107c1.147,0,2.081,0.897,2.081,2v1.625c0,1.103-0.934,2-2.081,2&#xD;&#xA;&#x9;&#x9;H149.033z M53.168,31.328v-1h1.833v-6.272c1.315-0.883,2.035-1.867,2.145-2.932l0.024-0.056l-0.001-6.448L56.667,2.829&#xD;&#xA;&#x9;&#x9;C56.639,2.165,56.286,0,52.892,0c-0.112,0-0.227,0.002-0.304,0.006L4.865,0.019C4.731,0.011,4.601,0.007,4.475,0.007&#xD;&#xA;&#x9;&#x9;c-2.483,0-3.697,1.434-3.774,2.765L0,14.662v6.169l0.01,0.297l0.019,0.037c0.125,1.048,0.842,2.018,2.14,2.89v6.272h1.834v1H53.168&#xD;&#xA;&#x9;&#x9;z"/>
</svg>