<svg version="1.2" baseProfile="tiny" viewBox="0 0 160.167 31.328" xmlns:xlink="http://www.w3.org/1999/xlink" xmlns="http://www.w3.org/2000/svg">
<path style="fill:#ffffff;" d="M55.6676,2.87C55.6164,1.641,54.5849,0.9239,52.5876,1.0059L4.8082,1.0169C2.8109,0.9019,1.757,1.823,1.6994,2.8321L0.9994,14.6621C0.9994,18.112,0.9994,20.8309,0.9994,20.8309C0.9994,20.8519,0.9994,20.872,1.0107,20.892C1.0395,21.8181,1.8067,22.7,3.1681,23.5029L3.1681,29.3271L5.002,29.3271L5.002,30.3271L52.1696,30.3271L52.1696,29.3271L54.0019,29.3271L54.0019,23.5029C55.3633,22.699,56.1305,21.8171,56.161,20.892C56.1706,20.872,56.1706,20.8529,56.1706,20.8309C56.1706,20.8309,56.1706,18.112,56.1706,14.6621L55.6676,2.87Z"/>
</svg>