<svg version="1.2" baseProfile="tiny" viewBox="0 0 160.167 31.328" xmlns:xlink="http://www.w3.org/1999/xlink" xmlns="http://www.w3.org/2000/svg">
<path style="fill:#ffffff;" d="M157.3433,22.2031L157.3433,18.2031L159.1676,18.2031C159.1676,18.2031,159.1676,12.305,159.1676,11.1791C159.1676,10.0532,158.5253,9.4291,157.3433,9.4291C156.1612,9.4291,61.9045,9.4291,60.9916,9.4291C60.0786,9.4291,59.1673,10.0541,59.1673,11.0541C59.1673,12.0541,59.1673,18.2019,59.1673,18.2019L60.9916,18.2019L60.9916,22.2022L63.3557,22.2022L63.3557,26.7021L60.2484,26.7021C59.6526,26.7021,59.1673,27.152,59.1673,27.7021L59.1673,29.3271C59.1673,29.8769,59.6526,30.3271,60.2484,30.3271L69.3027,30.3271C69.8953,30.3271,70.3838,29.8769,70.3838,29.3271L70.3838,27.7021C70.3838,27.152,69.8953,26.7021,69.3027,26.7021L66.1938,26.7021L66.1938,22.2022L152.1394,22.2022L152.1394,26.7021L149.0338,26.7021C148.438,26.7021,147.9527,27.152,147.9527,27.7021L147.9527,29.3271C147.9527,29.8769,148.438,30.3271,149.0338,30.3271L158.0864,30.3271C158.6806,30.3271,159.1676,29.8769,159.1676,29.3271L159.1676,27.7021C159.1676,27.152,158.6806,26.7021,158.0864,26.7021L154.9808,26.7021L154.9808,22.2022L157.3433,22.2022L157.3433,22.2022Z"/>
</svg>