<svg version="1.2" baseProfile="tiny" id="EdgeSVG_G5mRY" x="0px" y="0px" width="332.729px" height="139.896px" viewBox="0 0 332.729 139.896" xmlns:xlink="http://www.w3.org/1999/xlink" xmlns="http://www.w3.org/2000/svg">
  <linearGradient id="SVGID_1_" gradientUnits="userSpaceOnUse" x1="166.3643" y1="0" x2="166.3643" y2="139.896">
    <stop offset="0" style="stop-color:#000000;stop-opacity:0.5"/>
    <stop offset="1" style="stop-color:#000000;stop-opacity:0.5"/>
  </linearGradient>
  <path fill="url(#SVGID_1_)" d="M311.487,79.753h-11.892v-42.95v-1.84h-5.214v1.84h-5.598h-16.879h-17.091h-0.454h-0.164H117.482&#xD;&#xA;&#x9;&#x9;v-1.84h-2.328h-12.666v-1.01h2.116c2.229,0,4.041-1.738,4.164-3.914c1.196-0.529,2.028-1.465,2.242-2.535&#xD;&#xA;&#x9;&#x9;c0.015-0.075,0.014-0.154,0.022-0.231c0.013-0.105,0.032-0.21,0.032-0.317V26.95v-0.081V6.664V6.126V6.041&#xD;&#xA;&#x9;&#x9;c0-1.384-1.02-2.572-2.489-3.157c-0.008-0.023-0.017-0.044-0.024-0.067c-0.07-0.204-0.155-0.398-0.255-0.586&#xD;&#xA;&#x9;&#x9;c-0.02-0.037-0.039-0.073-0.06-0.109c-0.103-0.179-0.215-0.349-0.342-0.51c-0.031-0.04-0.064-0.077-0.097-0.116&#xD;&#xA;&#x9;&#x9;c-0.127-0.149-0.259-0.29-0.405-0.42c-0.048-0.042-0.099-0.081-0.148-0.121c-0.142-0.115-0.285-0.225-0.441-0.321&#xD;&#xA;&#x9;&#x9;c-0.073-0.045-0.151-0.082-0.228-0.123c-0.144-0.077-0.286-0.154-0.439-0.214c-0.118-0.047-0.243-0.077-0.366-0.113&#xD;&#xA;&#x9;&#x9;s-0.241-0.08-0.369-0.104c-0.259-0.05-0.524-0.08-0.797-0.08H65.539c-0.272,0-0.538,0.029-0.797,0.08&#xD;&#xA;&#x9;&#x9;c-0.128,0.025-0.248,0.069-0.371,0.105c-0.123,0.036-0.247,0.065-0.364,0.112c-0.154,0.061-0.297,0.138-0.442,0.216&#xD;&#xA;&#x9;&#x9;c-0.075,0.041-0.152,0.076-0.224,0.121c-0.158,0.097-0.303,0.208-0.446,0.324c-0.048,0.04-0.097,0.076-0.144,0.117&#xD;&#xA;&#x9;&#x9;C62.604,1.206,62.47,1.349,62.342,1.5c-0.031,0.037-0.063,0.073-0.092,0.11c-0.128,0.163-0.242,0.334-0.345,0.515&#xD;&#xA;&#x9;&#x9;c-0.02,0.035-0.039,0.069-0.057,0.104c-0.101,0.189-0.187,0.385-0.257,0.59c-0.008,0.022-0.017,0.043-0.024,0.065&#xD;&#xA;&#x9;&#x9;c-1.469,0.585-2.488,1.774-2.488,3.157v0.085v0.538v20.205v0.081v0.005c0,0.121,0.021,0.238,0.036,0.356&#xD;&#xA;&#x9;&#x9;c0.008,0.063,0.006,0.129,0.019,0.191c0.213,1.072,1.044,2.007,2.241,2.536c0.123,2.177,1.934,3.914,4.164,3.914h2.342v1.01H9.905&#xD;&#xA;&#x9;&#x9;H8.329v-1.306H8.304H8.303H6.058H0.002H0v106.238h0.002h6.056h2.245h0.001h0.025v-1.305h1.576h46.928h29.902h2.919h27.828v-0.001&#xD;&#xA;&#x9;&#x9;v-1.576H254.36v-0.518v-0.006h0.454v0.523v1.308v0.262h29.828v-0.262v-1.308h9.739v1.84h5.214v-1.84V93.801h11.892h21.241V79.753&#xD;&#xA;&#x9;&#x9;H311.487z"/>
</svg>